<svg width="32" height="32" viewBox="0 0 32 32" fill="none" xmlns="http://www.w3.org/2000/svg">
<path d="M19.5107 12.3432C19.681 12.4706 19.8402 12.6157 19.9864 12.7788C21.4826 14.4065 21.0254 17.2446 18.9889 19.1228C16.9523 21.0009 14.0845 21.1678 12.6299 19.5401C12.5065 19.4021 12.4448 19.3168 12.3482 19.1627M12.0009 26.6353H10.9259C6.10467 26.6353 2.15625 22.7121 2.15625 17.8289C2.15625 12.9875 6.06311 9.02252 10.9259 9.02252H14.999M19.5567 4.97407H20.9426C25.7639 4.97407 29.7123 8.89729 29.7123 13.7805C29.7123 18.6219 25.8054 22.5868 20.9426 22.5868H16.8695M19.1554 11.944C20.6516 13.5717 20.1944 16.4098 18.1579 18.288C16.1213 20.1661 13.2535 20.333 11.7988 18.7053C10.3442 17.0776 10.7598 14.2395 12.7963 12.3614C14.7913 10.4832 17.6591 10.2746 19.1554 11.944ZM19.6541 7.81215L16.6616 5.05755L19.6541 2.17773V7.81215ZM12.2145 23.839L15.4148 26.7605L12.2145 29.8908V23.839Z" stroke="#595A5F" stroke-width="0.592593" stroke-miterlimit="10"/>
</svg>
