<svg preserveAspectRatio="none" width="100%" height="100%" overflow="visible" style="display: block;" viewBox="0 0 16 16" fill="none" xmlns="http://www.w3.org/2000/svg">
<g id="icoNew">
<path id="shape" d="M10.5352 1.5C11.2665 1.5 11.9393 1.89927 12.29 2.54102L14.4756 6.54102C14.8022 7.13866 14.8022 7.86134 14.4756 8.45898L12.29 12.459C11.9393 13.1007 11.2665 13.5 10.5352 13.5H5.46484C4.73352 13.5 4.06066 13.1007 3.70996 12.459L1.52441 8.45898C1.19785 7.86134 1.19785 7.13866 1.52441 6.54102L3.70996 2.54102C4.06066 1.89927 4.73352 1.5 5.46484 1.5H10.5352ZM8 5.5C6.89543 5.5 6 6.39543 6 7.5C6 8.60457 6.89543 9.5 8 9.5C9.10457 9.5 10 8.60457 10 7.5C10 6.39543 9.10457 5.5 8 5.5Z" fill="var(--fill-0, #670DE5)"/>
</g>
</svg>
