<svg preserveAspectRatio="none" width="100%" height="100%" overflow="visible" style="display: block;" viewBox="0 0 85 26.7344" fill="none" xmlns="http://www.w3.org/2000/svg">
<g id="Union">
<path fill-rule="evenodd" clip-rule="evenodd" d="M58.4502 7.16992C60.0906 7.17 61.3668 7.89964 62.0352 8.68945H62.2773V7.53516H65.0723V19.6865C65.0722 24.6685 62.095 26.7344 58.6318 26.7344C55.3513 26.7342 53.3464 24.4865 52.6172 22.7246L55.1689 21.6309C55.655 22.7852 56.7488 24.0605 58.5713 24.0605C60.7586 24.0605 62.1562 22.6632 62.1562 20.1113V19.1396H62.0352C61.3668 19.9295 60.0906 20.6581 58.4502 20.6582C55.0477 20.6582 52.1309 17.6811 52.1309 13.9141C52.131 10.0864 55.0478 7.16992 58.4502 7.16992ZM58.7539 9.9043C56.749 9.9043 55.1691 11.6053 55.1689 13.9746C55.1689 16.2834 56.6881 18.0459 58.7539 18.0459C60.8195 18.0458 62.3995 16.3447 62.3389 14.0361C62.3389 11.6666 60.7589 9.9044 58.7539 9.9043Z" fill="var(--fill-0, #F2F3F7)"/>
<path d="M10.6328 0C13.7923 7.21322e-06 16.1015 1.27653 17.8027 2.91699L15.7969 4.92188C14.5817 3.76752 12.8808 2.85548 10.6328 2.85547C6.37986 2.85547 3.15942 6.2581 3.15918 10.4502C3.15918 14.6425 6.44046 18.0459 10.6328 18.0459C13.3669 18.0459 14.9468 16.9516 15.9189 15.9795C16.7695 15.1896 17.3158 13.9741 17.498 12.3945H10.6328V9.53906H20.293C20.3537 10.0251 20.415 10.6334 20.415 11.3018C20.4149 13.4282 19.8071 16.101 17.9238 17.9844C16.1011 19.8679 13.7315 20.9014 10.6328 20.9014C4.86073 20.9014 0 16.2222 0 10.4502C0.000265238 4.67838 4.86089 0 10.6328 0Z" fill="var(--fill-0, #F2F3F7)"/>
<path d="M70.2363 20.7188H67.3203V0.303711H70.2363V20.7188Z" fill="var(--fill-0, #F2F3F7)"/>
<path fill-rule="evenodd" clip-rule="evenodd" d="M28.9219 7.16992C32.6888 7.16992 35.7273 10.0256 35.7275 13.9746C35.7275 17.8631 32.6889 20.6582 28.9219 20.6582C25.155 20.6581 22.1172 17.8025 22.1172 13.9141C22.1173 10.0258 25.2158 7.17007 28.9219 7.16992ZM28.9219 9.9043C26.8563 9.90445 25.095 11.5447 25.0947 13.9746C25.0947 16.3441 26.8562 18.0457 28.9219 18.0459C30.9877 18.0459 32.75 16.3442 32.75 13.9746C32.7498 11.5445 30.9875 9.9043 28.9219 9.9043Z" fill="var(--fill-0, #F2F3F7)"/>
<path fill-rule="evenodd" clip-rule="evenodd" d="M44.0488 7.16992C47.8157 7.16992 50.8542 10.0256 50.8545 13.9746C50.8545 17.8631 47.8159 20.6582 44.0488 20.6582C40.2819 20.6581 37.2441 17.8025 37.2441 13.9141C37.2443 10.0258 40.3428 7.17007 44.0488 7.16992ZM44.0488 9.9043C41.9833 9.90445 40.2219 11.5447 40.2217 13.9746C40.2217 16.3441 41.9832 18.0457 44.0488 18.0459C46.1146 18.0459 47.877 16.3442 47.877 13.9746C47.8767 11.5445 46.1145 9.9043 44.0488 9.9043Z" fill="var(--fill-0, #F2F3F7)"/>
<path fill-rule="evenodd" clip-rule="evenodd" d="M78.9248 7.16992C82.3879 7.17004 84.1495 9.96545 84.6963 11.4844L85 12.2734L75.9473 15.9805C76.6764 17.3778 77.7096 18.0459 79.2285 18.0459C80.7474 18.0459 81.7805 17.3165 82.5703 16.1621L84.8789 17.6816C84.089 18.7753 82.3269 20.6581 79.2285 20.6582C75.4007 20.6582 72.5449 17.6811 72.5449 13.9141C72.5451 9.90417 75.4616 7.16992 78.9248 7.16992ZM79.0459 9.72168C77.5269 9.72179 75.4617 10.9377 75.5225 13.7324L81.5977 11.1807C81.2939 10.33 80.2611 9.72168 79.0459 9.72168Z" fill="var(--fill-0, #F2F3F7)"/>
</g>
</svg>
