<svg preserveAspectRatio="none" width="100%" height="100%" overflow="visible" style="display: block;" viewBox="0 0 81 17.5" fill="none" xmlns="http://www.w3.org/2000/svg">
<path id="Vector" fill-rule="evenodd" clip-rule="evenodd" d="M55.2573 0H58.4511V17.3654H55.2573V0ZM81 7.32308V4.63077H77.7236V1.13077H74.5299V13.9192C74.5299 15.1038 74.8328 15.9923 75.4385 16.5846C76.0442 17.1769 76.9528 17.4731 78.1917 17.4731H81V14.7808H78.9351C78.4946 14.7808 78.1642 14.6731 77.9715 14.4846C77.8063 14.3231 77.6961 13.8654 77.6961 13.3808V7.32308H81ZM33.6445 13.9731L36.9208 4.60385H40.2522L35.5167 17.3385H31.7447L27.0092 4.63077H30.3406L33.6445 13.9731ZM69.3538 10.9846C69.3538 11.7923 69.2162 12.4923 68.9959 13.0577C68.7481 13.6231 68.3902 14.0808 67.9497 14.3769C67.5092 14.6731 66.9585 14.8077 66.3253 14.8077C65.4167 14.8077 64.7284 14.5115 64.2879 13.9462C63.8474 13.3538 63.5996 12.4923 63.5996 11.3346V4.60385H60.4058V11.6577C60.4058 12.7615 60.5435 13.7038 60.8188 14.4308C61.0942 15.1846 61.4796 15.7769 61.9477 16.2346C62.4157 16.6923 62.9663 17.0154 63.5996 17.2038C64.2053 17.3923 64.8661 17.5 65.5544 17.5C66.5455 17.5 67.3715 17.3115 68.0048 16.9885C68.5829 16.6654 69.051 16.2885 69.4364 15.8846L69.7118 17.3654H72.4925V4.63077H69.2988V10.9846H69.3538ZM50.3841 5.27692C49.3929 4.73846 48.1815 4.46923 46.86 4.46923C45.5384 4.46923 44.3545 4.73846 43.3358 5.27692C42.3171 5.81539 41.5187 6.59615 40.9681 7.56539C40.4174 8.53462 40.1421 9.69231 40.1421 10.9846C40.1421 12.2769 40.4174 13.4077 40.9681 14.3769C41.5187 15.3462 42.3171 16.1269 43.3358 16.6654C44.3545 17.2038 45.5384 17.4731 46.86 17.4731C48.209 17.4731 49.3929 17.2038 50.3841 16.6654C51.3753 16.1269 52.1737 15.3462 52.7243 14.3769C53.275 13.4077 53.5503 12.25 53.5503 10.9846C53.5503 9.69231 53.275 8.53462 52.7243 7.56539C52.2012 6.59615 51.4028 5.84231 50.3841 5.27692ZM48.7046 14.3769C48.1815 14.7 47.5758 14.8615 46.86 14.8615C46.1441 14.8615 45.5384 14.7 45.0153 14.3769C44.4922 14.0538 44.0792 13.5962 43.8039 13.0038C43.5286 12.4115 43.3634 11.7385 43.3634 10.9846C43.3634 10.2038 43.501 9.53077 43.8039 8.96539C44.0792 8.4 44.4922 7.91539 45.0153 7.59231C45.5384 7.26923 46.1441 7.08077 46.86 7.08077C47.5758 7.08077 48.209 7.24231 48.7046 7.59231C49.2277 7.91539 49.6132 8.4 49.916 8.96539C50.1914 9.53077 50.3566 10.2308 50.3566 10.9846C50.3566 11.7385 50.2189 12.4115 49.916 13.0038C49.6407 13.5962 49.2277 14.0538 48.7046 14.3769ZM3.30387 4.28077H0V17.3385H3.30387V4.28077ZM13.6835 5.03462C13.6835 2.26154 11.3708 0 8.53501 0H0V2.8H8.12203C9.41604 2.8 10.4623 3.79615 10.4898 5.00769C10.4898 5.62692 10.2695 6.19231 9.82903 6.62308C9.38851 7.02692 8.81033 7.26923 8.20462 7.26923H5.03841C4.92828 7.26923 4.84568 7.35 4.84568 7.45769V9.96154C4.84568 10.0154 4.84568 10.0423 4.87322 10.0692L10.242 17.3385H14.1791L8.7828 10.0423C11.481 9.93462 13.6835 7.7 13.6835 5.03462ZM23.843 5.22308C22.8793 4.73846 21.7505 4.46923 20.484 4.46923C19.2175 4.46923 18.0612 4.73846 17.0976 5.27692C16.1064 5.81539 15.363 6.59615 14.8124 7.56539C14.2617 8.53462 14.0139 9.69231 14.0139 11.0115C14.0139 12.3038 14.2893 13.4346 14.8399 14.4038C15.3906 15.3731 16.189 16.1538 17.1802 16.6654C18.1988 17.2038 19.4103 17.4731 20.7869 17.4731C21.8882 17.4731 22.8518 17.2846 23.7053 16.8808C24.5588 16.4769 25.2471 15.9385 25.7427 15.2654C26.2383 14.6192 26.5687 13.9192 26.7339 13.1385L26.7614 13.0577H23.5401L23.5126 13.1115C23.3474 13.7038 22.9895 14.1615 22.5214 14.4846C21.9983 14.8346 21.3375 15.0231 20.5942 15.0231C19.9609 15.0231 19.3827 14.8885 18.8872 14.6192C18.3916 14.35 18.0061 13.9731 17.7308 13.5154C17.4555 13.0308 17.3178 12.4654 17.2627 11.8192V11.7115H26.8165V11.6577C26.844 11.4692 26.8715 11.2808 26.8715 11.1192C26.8715 10.9308 26.8715 10.7692 26.8715 10.5808C26.844 9.34231 26.5687 8.26539 26.0455 7.35C25.55 6.40769 24.7791 5.70769 23.843 5.22308ZM22.6866 7.61923C23.2373 8.07692 23.5676 8.69615 23.7053 9.50385H17.4004C17.483 8.99231 17.6482 8.53462 17.9235 8.15769C18.2264 7.75385 18.5843 7.45769 19.0523 7.24231C19.4929 7.02692 19.9884 6.91923 20.5116 6.91923C21.3926 6.91923 22.1084 7.16154 22.6866 7.61923Z" fill="var(--fill-0, #F2F3F7)"/>
</svg>
