<svg preserveAspectRatio="none" width="100%" height="100%" overflow="visible" style="display: block;" viewBox="0 0 95 19" fill="none" xmlns="http://www.w3.org/2000/svg">
<g id="Union">
<path d="M25.4415 0C25.5157 0 25.5827 0.00217487 25.6417 0.00996772C25.7712 0.0211532 25.8718 0.131468 25.8718 0.268362L25.3211 9.82893V9.83277C25.3121 9.96351 25.5044 9.98628 25.5389 9.86651L27.3299 0.463882C27.347 0.338454 27.4537 0.246893 27.5892 0.246893L28.2826 0.395642C28.3549 0.410881 28.4178 0.454556 28.4597 0.519088L28.4636 0.512954C28.5055 0.575668 28.5187 0.651892 28.5035 0.72611L25.1193 16.8401C24.9173 17.7402 24.1379 18.369 23.2233 18.369C22.701 18.3689 22.2035 18.1698 21.8227 17.8069V17.8085C21.8077 17.8019 21.2938 17.1863 10.9915 6.9199C10.898 6.82866 10.7495 6.94469 10.8197 7.05484L14.2782 12.3078C14.2879 12.3212 14.3074 12.3904 14.3074 12.4052C14.3073 12.4603 14.2842 12.5055 14.2406 12.534C14.2292 12.5414 14.1534 12.5722 14.1378 12.5724C14.0844 12.5724 14.0327 12.5475 13.9967 12.5041L9.42907 6.15775L9.4191 6.14471C9.34074 6.03649 9.17548 6.12948 9.23041 6.24746L12.8232 14.4624C12.8269 14.472 12.8362 14.5295 12.8362 14.5406C12.8362 14.5921 12.8151 14.6414 12.781 14.6755C12.7464 14.7153 12.6909 14.74 12.6337 14.74C12.5596 14.7399 12.4933 14.6982 12.4588 14.6318L8.17728 6.08337C8.11411 5.96593 7.9406 6.02898 7.97325 6.15621L10.6862 16.4214C10.6959 16.5639 10.6594 16.6345 10.5911 16.6798C10.553 16.7083 10.5057 16.7235 10.4561 16.7235C10.3551 16.7235 10.2673 16.6609 10.2291 16.564L6.90249 6.31723V6.31416C6.86239 6.18874 6.67327 6.22848 6.68849 6.3617L8.16885 17.8292C8.19 17.9375 8.12548 18.0465 8.0093 18.0922C7.94657 18.1185 7.91586 18.1244 7.88505 18.1244C7.7615 18.1243 7.65861 18.0347 7.64113 17.9112L5.70363 6.90839C5.67876 6.77558 5.48973 6.79067 5.48963 6.92526L5.67141 18.5913C5.67141 18.7052 5.58887 18.7999 5.48196 18.8114C5.47626 18.8123 5.33945 18.8344 5.33545 18.8344C5.18332 18.8343 5.08968 18.7469 5.08003 18.6312L4.48175 7.72728C4.47206 7.59263 4.27596 7.58482 4.26852 7.72728L3.31587 18.7723C3.30427 18.9013 3.19729 19 3.06966 19H3.02594C2.97636 19 2.91946 18.9997 2.87023 18.9923C2.73886 18.9808 2.63788 18.8708 2.63782 18.7339L3.18778 9.16953C3.19558 9.03483 2.99917 9.0119 2.96688 9.13733L1.17817 18.5361C1.15887 18.6615 1.05179 18.7531 0.918152 18.7531L0.22476 18.6044C0.150604 18.5891 0.0871862 18.5454 0.0452764 18.4809C0.0038504 18.4183 -0.00903861 18.3423 0.00615812 18.2685L3.39028 2.15073C3.59046 1.25023 4.3699 0.621065 5.28636 0.621065C5.80825 0.621108 6.30574 0.820971 6.68695 1.18386V1.18232C6.74408 1.23423 17.5166 12.0709 17.5166 12.0709C17.6116 12.1652 17.7603 12.0476 17.6899 11.9375L14.2307 6.6845C14.221 6.67114 14.2023 6.60234 14.2023 6.58713C14.2023 6.53414 14.2256 6.48839 14.2675 6.45985C14.2814 6.45223 14.3563 6.42248 14.3718 6.42228C14.4252 6.42228 14.4765 6.44674 14.5129 6.49052L19.079 12.8323L19.0905 12.8499C19.1685 12.9576 19.3337 12.8651 19.2784 12.7472L15.6865 4.53148C15.6827 4.52183 15.6734 4.46472 15.6734 4.45327C15.6735 4.40225 15.6925 4.35316 15.7287 4.31909C15.7628 4.27907 15.8181 4.25398 15.8752 4.25391C15.9494 4.25391 16.0166 4.29571 16.0508 4.36433L20.3285 12.9013L20.3346 12.9128C20.3974 13.0281 20.5649 12.9675 20.5387 12.8461L17.8249 2.57627C17.8157 2.43586 17.8515 2.36542 17.92 2.32018C17.9582 2.29164 18.0057 2.27651 18.055 2.27647C18.156 2.27647 18.2442 2.33757 18.2821 2.43442L21.6094 12.6858C21.6477 12.8094 21.8304 12.7736 21.8211 12.6444L20.3423 1.17082C20.3215 1.06432 20.3838 0.955328 20.5019 0.907829C20.565 0.881484 20.5957 0.875626 20.6261 0.875626C20.75 0.875692 20.8529 0.965294 20.87 1.08878L22.8083 12.0916C22.8309 12.2245 23.0155 12.2092 23.0192 12.0801L22.8405 0.41021C22.8407 0.296427 22.9228 0.201646 23.0292 0.190153C23.0361 0.189061 23.1721 0.167151 23.1757 0.167151C23.3281 0.16721 23.4218 0.254647 23.4311 0.370339L24.0332 11.2804C24.0469 11.4055 24.2348 11.4129 24.2426 11.2743L25.196 0.227724C25.2073 0.0987122 25.312 5.71703e-06 25.4415 0Z" fill="var(--fill-0, white)"/>
<path fill-rule="evenodd" clip-rule="evenodd" d="M87.7631 3.16667C92.2392 3.1667 94.9999 5.55655 95 9.5C95 13.4435 92.2382 15.8333 87.7631 15.8333C83.2884 15.8333 80.5255 13.4436 80.5255 9.5C80.5255 5.55652 83.2873 3.16667 87.7631 3.16667ZM87.7631 4.97619C84.6026 4.97619 82.5566 6.59744 82.5565 9.5C82.5565 12.4027 84.5854 14.0238 87.7631 14.0238C90.9407 14.0238 92.9536 12.4026 92.9536 9.5C92.9535 6.59858 90.924 4.97622 87.7631 4.97619Z" fill="var(--fill-0, white)"/>
<path d="M39.6798 3.61905C39.9638 3.61907 40.2368 3.73676 40.4384 3.94492L48.7575 12.5409V3.82377C48.7575 3.71061 48.8463 3.61909 48.9554 3.61905H50.488C50.5971 3.61906 50.6851 3.7106 50.6851 3.82377L50.6859 15.1755C50.6859 15.2886 50.5982 15.3802 50.4887 15.3802H49.3827C49.0991 15.3802 48.8272 15.2637 48.6256 15.0566L39.926 6.10638V15.177C39.9259 15.2901 39.8375 15.381 39.7281 15.381H38.2125C38.1035 15.3809 38.0155 15.29 38.0154 15.177V3.82377C38.0154 3.71064 38.1034 3.61913 38.2125 3.61905H39.6798Z" fill="var(--fill-0, white)"/>
<path d="M65.2509 3.61905C65.363 3.61905 65.4534 3.71059 65.4534 3.82377V5.17785C65.4534 5.29103 65.363 5.38257 65.2509 5.38257H55.8303V8.52546H63.756C63.8676 8.52546 63.9583 8.61641 63.9585 8.72942V10.0843C63.9585 10.1974 63.8677 10.289 63.756 10.289H55.8303V13.6159H65.4181C65.5299 13.6159 65.6198 13.7074 65.6198 13.8206V15.177C65.6197 15.2901 65.5298 15.381 65.4181 15.381H54.4351C54.1148 15.3809 53.8546 15.1178 53.8544 14.7936V4.20714C53.8544 3.88285 54.1148 3.61911 54.4351 3.61905H65.2509Z" fill="var(--fill-0, white)"/>
<path d="M79.4347 3.61905C79.5617 3.61905 79.6275 3.77519 79.5406 3.87131L74.5189 9.43329L79.6089 15.1302C79.6946 15.2263 79.6284 15.3809 79.5022 15.381H77.5325C77.4302 15.3809 77.3322 15.3376 77.2625 15.2598L73.2633 10.8111L69.458 15.0275C69.2543 15.2538 68.9683 15.3809 68.6688 15.381H67.1224C66.996 15.3809 66.9293 15.2263 67.0151 15.1302L72.0889 9.45016L67.0665 3.87207C66.9796 3.77596 67.0461 3.62058 67.1731 3.62058H69.1413C69.2437 3.62058 69.3418 3.66414 69.4113 3.74096L73.3614 8.12292L77.0853 3.97559C77.2891 3.74849 77.5766 3.61905 77.8761 3.61905H79.4347Z" fill="var(--fill-0, white)"/>
</g>
</svg>
