<svg preserveAspectRatio="none" width="100%" height="100%" overflow="visible" style="display: block;" viewBox="0 0 66 26" fill="none" xmlns="http://www.w3.org/2000/svg">
<path id="Vector" fill-rule="evenodd" clip-rule="evenodd" d="M66 13.4339C66 8.99065 63.7267 5.48465 59.3817 5.48465C55.0183 5.48465 52.3783 8.99065 52.3783 13.3992C52.3783 18.6235 55.495 21.2617 59.9683 21.2617C62.15 21.2617 63.8 20.7931 65.0467 20.1335V16.6622C63.8 17.2523 62.37 17.6168 60.555 17.6168C58.7767 17.6168 57.2 17.0267 56.9983 14.9786H65.9633C65.9633 14.753 66 13.8505 66 13.4339ZM56.9433 11.785C56.9433 9.82377 58.2083 9.00801 59.3633 9.00801C60.4817 9.00801 61.6733 9.82377 61.6733 11.785H56.9433ZM45.3017 5.48465C43.505 5.48465 42.35 6.28304 41.7083 6.83845L41.47 5.76235H37.4367V26L42.02 25.0801L42.0383 20.1682C42.6983 20.6195 43.67 21.2617 45.2833 21.2617C48.565 21.2617 51.5533 18.7623 51.5533 13.2603C51.535 8.22697 48.51 5.48465 45.3017 5.48465ZM44.2017 17.4433C43.12 17.4433 42.4783 17.0788 42.0383 16.6275L42.02 10.1883C42.4967 9.68491 43.1567 9.33778 44.2017 9.33778C45.87 9.33778 47.025 11.1081 47.025 13.3818C47.025 15.7076 45.8883 17.4433 44.2017 17.4433ZM31.13 4.46061L35.7317 3.52336V0L31.13 0.919893V4.46061ZM31.13 5.77971H35.7317V20.9666H31.13V5.77971ZM26.1983 7.06408L25.905 5.77971H21.945V20.9666H26.5283V10.6742C27.61 9.33778 29.4433 9.58077 30.0117 9.7717V5.77971C29.425 5.57143 27.28 5.18959 26.1983 7.06408ZM17.0317 2.01335L12.5583 2.91589L12.54 16.8184C12.54 19.3872 14.575 21.279 17.2883 21.279C18.7917 21.279 19.8917 21.0187 20.4967 20.7063V17.1829C19.91 17.4085 17.0133 18.2069 17.0133 15.6382V9.47664H20.4967V5.77971H17.0133L17.0317 2.01335ZM4.63833 10.1883C4.63833 9.51135 5.225 9.251 6.19667 9.251C7.59 9.251 9.35 9.6502 10.7433 10.3618V6.28304C9.22167 5.71028 7.71833 5.48465 6.19667 5.48465C2.475 5.48465 0 7.32443 0 10.3965C0 15.1869 6.96667 14.4232 6.96667 16.4887C6.96667 17.287 6.23333 17.5474 5.20667 17.5474C3.685 17.5474 1.74167 16.9573 0.201666 16.1589V20.2897C1.90667 20.984 3.63 21.279 5.20667 21.279C9.02 21.279 11.6417 19.4913 11.6417 16.3845C11.6233 11.2123 4.63833 12.1322 4.63833 10.1883Z" fill="var(--fill-0, #F2F3F7)"/>
</svg>
