<svg width="55" height="18" viewBox="0 0 55 18" fill="none" xmlns="http://www.w3.org/2000/svg">
<g clip-path="url(#clip0_5073_5358)">
<path d="M30.8761 1.65172C30.8761 1.15423 30.9738 0.680265 31.151 0.246094H-0.00976562V2.89815H5.50782V17.7577H8.4638V2.89996H31.0913C30.952 2.50921 30.8761 2.09132 30.8761 1.65353V1.65172Z" fill="white"/>
<path d="M11.7734 17.7594V5.23719H14.6082V7.95075C14.8108 7.33025 15.0985 6.79839 15.4747 6.35879C15.851 5.9192 16.2924 5.5809 16.8008 5.34754C17.3091 5.11417 17.8627 4.99658 18.4597 4.99658C18.6044 4.99658 18.7473 5.00382 18.8848 5.0201C19.0223 5.03638 19.1236 5.06533 19.1887 5.10332V7.92543C19.1001 7.88563 18.9861 7.85849 18.8432 7.8404C18.7021 7.82412 18.5791 7.81688 18.4741 7.81688C17.8699 7.76804 17.3326 7.79337 16.8695 7.88925C16.4046 7.98693 16.012 8.14975 15.6954 8.3795C15.3752 8.61105 15.1365 8.9005 14.9736 9.25146C14.8126 9.60241 14.7312 10.0131 14.7312 10.4816V17.7612H11.7752L11.7734 17.7594Z" fill="white"/>
<path d="M24.0832 18.0037C23.2854 18.0037 22.5672 17.8572 21.9322 17.5623C21.2973 17.2674 20.8016 16.8441 20.4434 16.2905C20.0834 15.737 19.9043 15.0658 19.9043 14.2734C19.9043 12.8931 20.4036 11.8511 21.4004 11.1492C22.3972 10.4473 23.9873 10.0801 26.1654 10.0475L28.0432 9.99867V9.15023C28.0432 8.48812 27.8478 7.96892 27.4553 7.59264C27.0627 7.21636 26.4567 7.03726 25.6317 7.05354C25.0185 7.05354 24.4613 7.19284 23.9602 7.47143C23.4609 7.75003 23.128 8.21676 22.967 8.86983H20.4597C20.5085 8.01415 20.7564 7.29596 21.205 6.71887C21.6536 6.14179 22.2687 5.70942 23.052 5.42359C23.8354 5.13596 24.7399 4.99304 25.7656 4.99304C26.9614 4.99304 27.9346 5.15043 28.6836 5.4652C29.4343 5.77998 29.9879 6.23405 30.3425 6.82922C30.6971 7.42259 30.8743 8.13897 30.8743 8.98018V17.7613H28.3923L28.1499 15.509C27.6977 16.4552 27.1278 17.1064 26.4422 17.4646C25.7566 17.8246 24.9696 18.0037 24.0796 18.0037H24.0832ZM25.0402 16.0047C25.4038 16.0047 25.7638 15.9378 26.1184 15.8039C26.4729 15.67 26.795 15.4891 27.0808 15.2594C27.3684 15.0278 27.5964 14.7745 27.7718 14.4905C27.9455 14.2083 28.036 13.9134 28.045 13.6059V11.6304L26.5073 11.6539C25.7475 11.6612 25.0836 11.7444 24.5156 11.9018C23.9457 12.0592 23.5043 12.3034 23.1895 12.6344C22.8747 12.9655 22.7174 13.4087 22.7174 13.9677C22.7174 14.6045 22.9399 15.1038 23.3831 15.4638C23.8263 15.8238 24.3799 16.0029 25.0438 16.0029L25.0402 16.0047Z" fill="white"/>
<path d="M33.1523 17.7268V5.20276H35.9745V17.7268H33.1523Z" fill="white"/>
<path d="M41.8424 17.9096C41.0338 17.9096 40.3879 17.8083 39.9049 17.6057C39.4201 17.4031 39.0565 17.1335 38.8141 16.7934C38.5717 16.4551 38.4125 16.0716 38.3347 15.6501C38.2569 15.225 38.2207 14.7926 38.2207 14.3476V0.246094H41.1152V14.0075C41.1152 14.5484 41.2273 14.9681 41.448 15.2666C41.6706 15.5651 42.0324 15.7388 42.5317 15.7876L43.1612 15.8111V17.6654C42.9441 17.7305 42.7216 17.7866 42.4955 17.8354C42.2693 17.8843 42.0523 17.9078 41.8424 17.9078V17.9096Z" fill="white"/>
<path d="M49.2096 17.9691C48.3377 17.9691 47.5127 17.8299 46.733 17.5513C45.9533 17.2727 45.3003 16.8349 44.772 16.2361C44.2438 15.6391 43.9109 14.8684 43.7734 13.9223H46.3658C46.478 14.3818 46.6788 14.7581 46.9664 15.0475C47.254 15.3388 47.5923 15.5505 47.9849 15.6825C48.3775 15.8164 48.7827 15.8833 49.2006 15.8833C49.9513 15.8833 50.5574 15.7549 51.0169 15.4962C51.4764 15.2375 51.7079 14.8377 51.7079 14.2968C51.7079 13.9006 51.5813 13.5876 51.328 13.3507C51.0729 13.1173 50.6605 12.94 50.0852 12.8188L47.7117 12.2743C46.6462 12.0409 45.7941 11.6538 45.1555 11.1111C44.5188 10.5702 44.1949 9.80674 44.1859 8.82262C44.1787 8.08091 44.3632 7.41699 44.7431 6.83629C45.123 6.25558 45.6892 5.79789 46.4382 5.46141C47.1889 5.12674 48.1133 4.9585 49.2114 4.9585C50.6731 4.9585 51.8454 5.28412 52.73 5.93357C53.6146 6.58302 54.0687 7.50925 54.094 8.71407H51.5867C51.4981 8.17317 51.243 7.75166 50.8233 7.44774C50.4036 7.14382 49.8591 6.99367 49.1879 6.99367C48.5168 6.99367 47.9252 7.12754 47.4802 7.39347C47.037 7.6594 46.8144 8.06825 46.8144 8.61639C46.8144 8.99629 46.9827 9.29478 47.3174 9.51367C47.652 9.73076 48.1622 9.91709 48.8496 10.0709L51.1019 10.6154C51.7477 10.7764 52.276 10.9953 52.6884 11.2684C53.0991 11.5434 53.4211 11.8437 53.6508 12.1712C53.8824 12.4986 54.0434 12.8333 54.1356 13.177C54.2279 13.5207 54.2749 13.8373 54.2749 14.1267C54.2749 14.9354 54.0669 15.6228 53.6508 16.1927C53.2347 16.7625 52.6486 17.1985 51.8942 17.5078C51.1399 17.8136 50.2462 17.9673 49.2114 17.9673V17.9728L49.2096 17.9691Z" fill="white"/>
<path d="M34.597 3.30319C35.5087 3.30319 36.2486 2.5633 36.2486 1.65154C36.2486 0.739778 35.5087 -0.00012207 34.597 -0.00012207C33.6852 -0.00012207 32.9453 0.739778 32.9453 1.65154C32.9453 2.5633 33.6852 3.30319 34.597 3.30319Z" fill="white"/>
</g>
<defs>
<clipPath id="clip0_5073_5358">
<rect width="54.2714" height="18" fill="white"/>
</clipPath>
</defs>
</svg>
