<svg preserveAspectRatio="none" width="100%" height="100%" overflow="visible" style="display: block;" viewBox="0 0 1441.71 121.707" fill="none" xmlns="http://www.w3.org/2000/svg">
<g id="Row-corner">
<path id="rect" d="M1081.21 1.20711H1201.21V121.207H1081.21V1.20711Z" fill="var(--fill-0, #07060D)" stroke="var(--stroke-0, #1B1B1D)"/>
<path id="rect_2" d="M1201.21 1.20711H1321.21V121.207H1201.21V1.20711Z" fill="var(--fill-0, #07060D)" stroke="var(--stroke-0, #1B1B1D)"/>
<path id="rect_3" d="M1321.21 1.20711H1441.21V121.207H1321.21V1.20711Z" fill="var(--fill-0, #07060D)" stroke="var(--stroke-0, #1B1B1D)"/>
<path id="rect_4" d="M961.207 1.20711H1081.21V121.207H961.207V1.20711Z" fill="var(--fill-0, #07060D)" stroke="var(--stroke-0, #1B1B1D)"/>
<path id="rect_5" d="M841.207 1.20711H961.207V121.207H841.207V1.20711Z" fill="var(--fill-0, #07060D)" stroke="var(--stroke-0, #1B1B1D)"/>
<path id="rect_6" d="M481.207 1.20711H601.207V121.207H481.207V1.20711Z" fill="var(--fill-0, #07060D)" stroke="var(--stroke-0, #1B1B1D)"/>
<path id="rect_7" d="M601.207 1.20711H721.207V121.207H601.207V1.20711Z" fill="var(--fill-0, #07060D)" stroke="var(--stroke-0, #1B1B1D)"/>
<path id="rect_8" d="M721.207 1.20711H841.207V121.207H721.207V1.20711Z" fill="var(--fill-0, #07060D)" stroke="var(--stroke-0, #1B1B1D)"/>
<path id="rect_9" d="M361.207 1.20711H481.207V121.207H361.207V1.20711Z" fill="var(--fill-0, #07060D)" stroke="var(--stroke-0, #1B1B1D)"/>
<path id="rect_10" d="M241.207 1.20711H361.207V121.207H241.207V1.20711Z" fill="var(--fill-0, #07060D)" stroke="var(--stroke-0, #1B1B1D)"/>
<path id="rect_11" d="M121.207 1.20711H241.207V121.207H121.207V1.20711Z" fill="var(--fill-0, #07060D)" stroke="var(--stroke-0, #1B1B1D)"/>
<rect id="rect-opacity-4%" x="1.20711" y="1.20711" width="120" height="120" stroke="var(--stroke-0, white)" stroke-opacity="0.04"/>
<path id=" " d="M121.207 1.20711V121.207H1.20711L121.207 1.20711Z" fill="var(--fill-0, #07060D)" stroke="var(--stroke-0, #1B1B1D)"/>
</g>
</svg>
