<svg preserveAspectRatio="none" width="100%" height="100%" overflow="visible" style="display: block;" viewBox="0 0 156 100" fill="none" xmlns="http://www.w3.org/2000/svg">
<g id="container">
<mask id="path-1-inside-1_0_246" fill="white">
<path d="M154 0C155.105 0 156 0.895431 156 2V83.2881C156 84.3582 155.571 85.3841 154.81 86.1357L141.928 98.8467C141.179 99.5854 140.17 100 139.118 100H0V0H154Z"/>
</mask>
<path d="M154.81 86.1357L155.512 86.8476L155.512 86.8475L154.81 86.1357ZM141.928 98.8467L141.225 98.1349L141.225 98.1349L141.928 98.8467ZM0 100H-1V101H0V100ZM0 0V-1H-1V0H0ZM154 0V1C154.552 1 155 1.44772 155 2H156H157C157 0.343146 155.657 -1 154 -1V0ZM156 2H155V83.2881H156H157V2H156ZM156 83.2881H155C155 84.0908 154.678 84.8603 154.107 85.424L154.81 86.1357L155.512 86.8475C156.464 85.9079 157 84.6255 157 83.2881H156ZM154.81 86.1357L154.107 85.4239L141.225 98.1349L141.928 98.8467L142.63 99.5585L155.512 86.8476L154.81 86.1357ZM141.928 98.8467L141.225 98.1349C140.664 98.6891 139.907 99 139.118 99V100V101C140.433 101 141.695 100.482 142.63 99.5585L141.928 98.8467ZM139.118 100V99H0V100V101H139.118V100ZM0 100H1V0H0H-1V100H0ZM0 0V1H154V0V-1H0V0Z" fill="var(--stroke-0, #707BB7)" mask="url(#path-1-inside-1_0_246)"/>
</g>
</svg>
