<svg preserveAspectRatio="none" width="100%" height="100%" overflow="visible" style="display: block;" viewBox="0 0 180 120" fill="none" xmlns="http://www.w3.org/2000/svg">
<g id="container">
<mask id="path-1-inside-1_0_288" fill="white">
<path d="M176 0C178.209 2.57702e-07 180 1.79086 180 4V103.288C180 104.358 179.571 105.384 178.81 106.136L165.928 118.847C165.179 119.585 164.17 120 163.118 120H4C1.79087 120 7.70629e-06 118.209 0 116V4C2.39043e-06 1.79086 1.79086 -1.98546e-07 4 0H176Z"/>
</mask>
<path d="M176 0V-1V-1V0ZM178.81 106.136L179.512 106.848L179.512 106.848L178.81 106.136ZM165.928 118.847L165.225 118.135L165.225 118.135L165.928 118.847ZM4 120V119V119V120ZM0 116H-1V116H0ZM0 4L-1 4V4H0ZM4 0V1V1V0ZM176 0V1C177.657 1 179 2.34315 179 4H180H181C181 1.23858 178.761 -1 176 -1V0ZM180 4H179V103.288H180H181V4H180ZM180 103.288H179C179 104.091 178.678 104.86 178.107 105.424L178.81 106.136L179.512 106.848C180.464 105.908 181 104.626 181 103.288H180ZM178.81 106.136L178.107 105.424L165.225 118.135L165.928 118.847L166.63 119.558L179.512 106.848L178.81 106.136ZM165.928 118.847L165.225 118.135C164.664 118.689 163.907 119 163.118 119V120V121C164.433 121 165.695 120.482 166.63 119.558L165.928 118.847ZM163.118 120V119H4V120V121H163.118V120ZM4 120V119C2.34315 119 1.00001 117.657 1 116H0H-1C-0.99999 118.761 1.23858 121 4 121V120ZM0 116H1V4H0H-1V116H0ZM0 4L1 4C1 2.34315 2.34315 1 4 1V0V-1C1.23858 -1 -0.999997 1.23858 -1 4L0 4ZM4 0V1H176V0V-1H4V0Z" fill="var(--stroke-0, #707BB7)" mask="url(#path-1-inside-1_0_288)"/>
</g>
</svg>
