<svg preserveAspectRatio="none" width="100%" height="100%" overflow="visible" style="display: block;" viewBox="0 0 222.004 206.001" fill="none" xmlns="http://www.w3.org/2000/svg">
<g id="container">
<mask id="path-1-inside-1_0_65" fill="white">
<path d="M218.004 0C220.213 0.000174836 222.004 1.79114 222.004 4V179H222V183.398C222 184.463 221.575 185.484 220.82 186.234L202.118 204.837C201.369 205.582 200.355 206.001 199.298 206.001H4C1.79105 206.001 6.69099e-05 204.21 0 202.001V178.001H0.00390625V22.6035C0.00384882 21.5389 0.428766 20.5174 1.18359 19.7666L19.8857 1.16406C20.6352 0.418799 21.6491 3.69521e-05 22.7061 0H218.004Z"/>
</mask>
<path d="M218.004 0C220.213 0.000174836 222.004 1.79114 222.004 4V179H222V183.398C222 184.463 221.575 185.484 220.82 186.234L202.118 204.837C201.369 205.582 200.355 206.001 199.298 206.001H4C1.79105 206.001 6.69099e-05 204.21 0 202.001V178.001H0.00390625V22.6035C0.00384882 21.5389 0.428766 20.5174 1.18359 19.7666L19.8857 1.16406C20.6352 0.418799 21.6491 3.69521e-05 22.7061 0H218.004Z" fill="var(--fill-0, #07060D)" fill-opacity="0.8"/>
<path d="M218.004 0L218.004 -1H218.004V0ZM222.004 4H223.004V3.99991L222.004 4ZM222.004 179V180H223.004V179H222.004ZM222 179V178H221V179H222ZM222 183.398L223 183.398V183.398H222ZM220.82 186.234L220.115 185.525V185.525L220.82 186.234ZM202.118 204.837L202.823 205.546L202.823 205.546L202.118 204.837ZM199.298 206.001V207.001H199.298L199.298 206.001ZM4 206.001L3.99992 207.001H4V206.001ZM0 202.001H-1V202.001L0 202.001ZM0 178.001V177.001H-1V178.001H0ZM0.00390625 178.001V179.001H1.00391V178.001H0.00390625ZM0.00390625 22.6035H1.00391V22.6035L0.00390625 22.6035ZM1.18359 19.7666L1.88881 20.4756L1.88881 20.4756L1.18359 19.7666ZM19.8857 1.16406L19.1806 0.454977L19.1805 0.45507L19.8857 1.16406ZM22.7061 0V-1H22.706L22.7061 0ZM218.004 0L218.004 1C219.66 1.00013 221.004 2.34343 221.004 4.00009L222.004 4L223.004 3.99991C223.004 1.23885 220.765 -0.999781 218.004 -1L218.004 0ZM222.004 4H221.004V179H222.004H223.004V4H222.004ZM222.004 179V178H222V179V180H222.004V179ZM222 179H221V183.398H222H223V179H222ZM222 183.398L221 183.398C221 184.196 220.681 184.962 220.115 185.525L220.82 186.234L221.526 186.943C222.469 186.005 223 184.729 223 183.398L222 183.398ZM220.82 186.234L220.115 185.525L201.413 204.128L202.118 204.837L202.823 205.546L221.526 186.943L220.82 186.234ZM202.118 204.837L201.413 204.128C200.851 204.687 200.09 205.001 199.298 205.001L199.298 206.001L199.298 207.001C200.619 207.001 201.887 206.477 202.823 205.546L202.118 204.837ZM199.298 206.001V205.001H4V206.001V207.001H199.298V206.001ZM4 206.001L4.00008 205.001C2.34331 205.001 1.00005 203.658 1 202.001L0 202.001L-1 202.001C-0.999916 204.762 1.2388 207.001 3.99992 207.001L4 206.001ZM0 202.001H1V178.001H0H-1V202.001H0ZM0 178.001V179.001H0.00390625V178.001V177.001H0V178.001ZM0.00390625 178.001H1.00391V22.6035H0.00390625H-0.996094V178.001H0.00390625ZM0.00390625 22.6035L1.00391 22.6035C1.00386 21.8051 1.32258 21.0388 1.88881 20.4756L1.18359 19.7666L0.47838 19.0576C-0.465045 19.996 -0.996166 21.2726 -0.996094 22.6036L0.00390625 22.6035ZM1.18359 19.7666L1.88881 20.4756L20.591 1.87305L19.8857 1.16406L19.1805 0.45507L0.478378 19.0576L1.18359 19.7666ZM19.8857 1.16406L20.5909 1.87315C21.1531 1.31401 21.9137 1.00003 22.7061 1L22.7061 0L22.706 -1C21.3846 -0.999954 20.1172 -0.476412 19.1806 0.454977L19.8857 1.16406ZM22.7061 0V1H218.004V0V-1H22.7061V0Z" fill="var(--stroke-0, white)" fill-opacity="0.1" mask="url(#path-1-inside-1_0_65)"/>
</g>
</svg>
