<svg preserveAspectRatio="none" width="100%" height="100%" overflow="visible" style="display: block;" viewBox="0 0 190.332 176.612" fill="none" xmlns="http://www.w3.org/2000/svg">
<g id="container">
<mask id="path-1-inside-1_0_69" fill="white">
<path d="M186.902 0C188.796 1.65575e-07 190.332 1.53573 190.332 3.42969V153.464H190.328L190.329 157.234C190.329 158.147 189.964 159.022 189.317 159.666L173.284 175.614C172.642 176.253 171.772 176.612 170.865 176.612H3.42969C1.53573 176.612 2.48155e-05 175.077 0 173.183V152.606H0.00292969V24.0059H0.00390625V19.3789C0.00385701 18.4662 0.367535 17.591 1.01465 16.9473L17.0488 0.998047C17.6914 0.359088 18.5606 1.64075e-05 19.4668 0H186.902Z"/>
</mask>
<path d="M186.902 0C188.796 1.65575e-07 190.332 1.53573 190.332 3.42969V153.464H190.328L190.329 157.234C190.329 158.147 189.964 159.022 189.317 159.666L173.284 175.614C172.642 176.253 171.772 176.612 170.865 176.612H3.42969C1.53573 176.612 2.48155e-05 175.077 0 173.183V152.606H0.00292969V24.0059H0.00390625V19.3789C0.00385701 18.4662 0.367535 17.591 1.01465 16.9473L17.0488 0.998047C17.6914 0.359088 18.5606 1.64075e-05 19.4668 0H186.902Z" fill="var(--fill-0, #07060D)" fill-opacity="0.8"/>
<path d="M186.902 0V-0.857337V-0.857337V0ZM190.332 3.42969H191.189V3.42968L190.332 3.42969ZM190.332 153.464V154.321H191.189V153.464H190.332ZM190.328 153.464V152.607H189.471L189.471 153.464L190.328 153.464ZM190.329 157.234L191.186 157.234V157.234L190.329 157.234ZM189.317 159.666L188.713 159.058L188.713 159.058L189.317 159.666ZM173.284 175.614L173.889 176.222L173.889 176.222L173.284 175.614ZM0 173.183H-0.857337V173.183L0 173.183ZM0 152.606V151.749H-0.857337V152.606H0ZM0.00292969 152.606V153.464H0.860267V152.606H0.00292969ZM0.00292969 24.0059V23.1485H-0.854407V24.0059H0.00292969ZM0.00390625 24.0059V24.8632H0.861243V24.0059H0.00390625ZM0.00390625 19.3789H0.861243V19.3789L0.00390625 19.3789ZM1.01465 16.9473L0.410032 16.3394L0.410031 16.3394L1.01465 16.9473ZM17.0488 0.998047L16.4443 0.390123L16.4442 0.39021L17.0488 0.998047ZM19.4668 0V-0.857337H19.4668L19.4668 0ZM186.902 0V0.857337C188.323 0.857337 189.475 2.00921 189.475 3.4297L190.332 3.42969L191.189 3.42968C191.189 1.06224 189.27 -0.857337 186.902 -0.857337V0ZM190.332 3.42969H189.475V153.464H190.332H191.189V3.42969H190.332ZM190.332 153.464V152.607H190.328V153.464V154.321H190.332V153.464ZM190.328 153.464L189.471 153.464L189.472 157.235L190.329 157.234L191.186 157.234L191.185 153.464L190.328 153.464ZM190.329 157.234L189.472 157.234C189.472 157.918 189.198 158.575 188.713 159.058L189.317 159.666L189.922 160.274C190.731 159.47 191.186 158.376 191.186 157.234L190.329 157.234ZM189.317 159.666L188.713 159.058L172.68 175.006L173.284 175.614L173.889 176.222L189.922 160.274L189.317 159.666ZM173.284 175.614L172.68 175.006C172.198 175.486 171.545 175.755 170.865 175.755V176.612V177.47C171.998 177.47 173.085 177.021 173.889 176.222L173.284 175.614ZM170.865 176.612V175.755H3.42969V176.612V177.47H170.865V176.612ZM3.42969 176.612V175.755C2.00923 175.755 0.857356 174.603 0.857337 173.183L0 173.183L-0.857337 173.183C-0.857306 175.55 1.06222 177.47 3.42969 177.47V176.612ZM0 173.183H0.857337V152.606H0H-0.857337V173.183H0ZM0 152.606V153.464H0.00292969V152.606V151.749H0V152.606ZM0.00292969 152.606H0.860267V24.0059H0.00292969H-0.854407V152.606H0.00292969ZM0.00292969 24.0059V24.8632H0.00390625V24.0059V23.1485H0.00292969V24.0059ZM0.00390625 24.0059H0.861243V19.3789H0.00390625H-0.853431V24.0059H0.00390625ZM0.00390625 19.3789L0.861243 19.3789C0.861206 18.6942 1.13401 18.0378 1.61927 17.5551L1.01465 16.9473L0.410031 16.3394C-0.398944 17.1441 -0.853492 18.2381 -0.853431 19.379L0.00390625 19.3789ZM1.01465 16.9473L1.61926 17.5551L17.6534 1.60588L17.0488 0.998047L16.4442 0.39021L0.410032 16.3394L1.01465 16.9473ZM17.0488 0.998047L17.6534 1.60597C18.1355 1.12656 18.7875 0.857349 19.4668 0.857337L19.4668 0L19.4668 -0.857337C18.3338 -0.857317 17.2473 -0.408381 16.4443 0.390123L17.0488 0.998047ZM19.4668 0V0.857337H186.902V0V-0.857337H19.4668V0Z" fill="var(--stroke-0, white)" fill-opacity="0.1" mask="url(#path-1-inside-1_0_69)"/>
</g>
</svg>
