<svg preserveAspectRatio="none" width="100%" height="100%" overflow="visible" style="display: block;" viewBox="0 0 1392 740" fill="none" xmlns="http://www.w3.org/2000/svg">
<path id="container-mask" d="M1392 402C1392 403.105 1391.1 404 1390 404H1298C1296.9 404 1296 404.895 1296 406V699.29C1296 699.831 1295.78 700.348 1295.4 700.725L1255.51 739.435C1255.14 739.797 1254.64 740 1254.12 740H2.00389C0.899323 740 0.00390625 739.105 0.00390625 738V164.002C0.00390625 164.001 0.00303181 164 0.00195312 164C0.000874444 164 0 163.999 0 163.998V40.8189C0 40.2779 0.219104 39.7601 0.607332 39.3834L40.6183 0.564566C40.9915 0.202499 41.491 0 42.011 0H934C935.105 0 936 0.89543 936 2V162C936 163.105 936.895 164 938 164H1390C1391.1 164 1392 164.895 1392 166V402Z" fill="var(--fill-0, #07060D)"/>
</svg>
