<svg preserveAspectRatio="none" width="100%" height="100%" overflow="visible" style="display: block;" viewBox="0 0 217 53" fill="none" xmlns="http://www.w3.org/2000/svg">
<g id="logo-area">
<path d="M216.5 0.5V52.5H14.7607C14.271 52.5 13.7977 52.3205 13.4316 51.9951L1.1709 41.0967C0.744053 40.7172 0.5 40.1727 0.5 39.6016V0.5H216.5Z" fill="var(--fill-0, #F2F1F5)"/>
<path d="M216.5 0.5H217V0H216.5V0.5ZM216.5 52.5V53H217V52.5H216.5ZM13.4316 51.9951L13.0995 52.3688L13.0995 52.3689L13.4316 51.9951ZM1.1709 41.0967L0.838663 41.4703L0.838717 41.4704L1.1709 41.0967ZM0.5 0.5V0H0V0.5H0.5ZM216.5 0.5H216V52.5H216.5H217V0.5H216.5ZM216.5 52.5V52H14.7607V52.5V53H216.5V52.5ZM14.7607 52.5V52C14.3932 52 14.0382 51.8652 13.7638 51.6214L13.4316 51.9951L13.0995 52.3689C13.5573 52.7757 14.1488 53 14.7607 53V52.5ZM13.4316 51.9951L13.7638 51.6214L1.50308 40.723L1.1709 41.0967L0.838717 41.4704L13.0995 52.3688L13.4316 51.9951ZM1.1709 41.0967L1.50313 40.723C1.18317 40.4385 1 40.0302 1 39.6016H0.5H0C0 40.3153 0.304938 40.9958 0.838663 41.4703L1.1709 41.0967ZM0.5 39.6016H1V0.5H0.5H0V39.6016H0.5ZM0.5 0.5V1H216.5V0.5V0H0.5V0.5Z" fill="var(--stroke-0, #E1E1E5)"/>
</g>
</svg>
