<svg preserveAspectRatio="none" width="100%" height="100%" overflow="visible" style="display: block;" viewBox="0 0 18 13" fill="none" xmlns="http://www.w3.org/2000/svg">
<path id="Vector" d="M15.2477 1.08877C14.0672 0.573462 12.8184 0.207311 11.5342 0C11.3742 0.269815 11.1873 0.632718 11.0585 0.921426C9.67387 0.727182 8.302 0.727182 6.94286 0.921426C6.81405 0.632783 6.62294 0.269815 6.4615 0C5.17604 0.207406 3.92615 0.57449 2.74513 1.09146C0.395011 4.40488 -0.242091 7.63591 0.0764248 10.8212C1.63518 11.9072 3.14578 12.567 4.63092 12.9987C5.00001 12.5251 5.32628 12.0238 5.60636 11.4998C5.07313 11.3104 4.55908 11.077 4.07031 10.8023C4.19894 10.7134 4.32453 10.6207 4.44691 10.5244C7.40861 11.8168 10.6267 11.8168 13.5531 10.5244C13.676 10.62 13.8015 10.7127 13.9296 10.8023C13.4401 11.0777 12.925 11.3116 12.3907 11.5012C12.6724 12.0273 12.9981 12.5291 13.3662 13C14.8527 12.5683 16.3647 11.9086 17.9235 10.8212C18.2973 7.12868 17.2851 3.92724 15.2477 1.08871V1.08877ZM6.00988 8.86231C5.12078 8.86231 4.39164 8.08789 4.39164 7.14489C4.39164 6.20188 5.10524 5.42615 6.00988 5.42615C6.91459 5.42615 7.64366 6.2005 7.62813 7.14489C7.62953 8.08789 6.91459 8.86231 6.00988 8.86231ZM11.99 8.86231C11.1009 8.86231 10.3719 8.08789 10.3719 7.14489C10.3719 6.20188 11.0854 5.42615 11.99 5.42615C12.8947 5.42615 13.6238 6.2005 13.6083 7.14489C13.6083 8.08789 12.8947 8.86231 11.99 8.86231V8.86231Z" fill="var(--fill-0, #686D73)"/>
</svg>
