<svg xmlns="http://www.w3.org/2000/svg" width="100%" height="100%" viewBox="0 0 132 60" fill="none"><path fill-rule="evenodd" clip-rule="evenodd" d="M11.591 16.7968C14.829 16.1003 18.2081 16.6396 21.0749 18.3103C21.5588 18.5909 22.0231 18.9048 22.4649 19.249C21.0559 20.1793 19.9497 21.5081 19.2861 23.0696C17.5231 21.7403 15.3195 21.1491 13.1349 21.419L14.105 25.077C15.1884 25.0614 16.2461 25.4111 17.1106 26.0702C17.9751 26.7293 18.5976 27.6608 18.8785 28.7166C19.1591 29.7723 19.0828 30.8929 18.6615 31.9C18.2401 32.907 17.4973 33.7438 16.5516 34.2775L17.5235 37.9337C19.4198 37.1184 20.9611 35.64 21.8639 33.7703C22.7665 31.9009 22.9702 29.7657 22.4378 27.7568C22.1395 26.6276 22.2498 25.4283 22.7474 24.373C23.2452 23.3178 24.0982 22.4754 25.1547 21.9964V21.9929C27.1185 24.682 28.0247 28.0102 27.6976 31.334C27.3704 34.6576 25.8336 37.7407 23.3842 39.9878C20.9348 42.2348 17.7465 43.4863 14.4356 43.4999C11.1249 43.5133 7.9265 42.2885 5.45905 40.0616C2.9916 37.8345 1.43037 34.7631 1.07659 31.4421C0.722927 28.1213 1.60226 24.7858 3.54424 22.0808C5.48629 19.3759 8.35317 17.4932 11.591 16.7968ZM10.8081 22.0509C8.9128 22.8664 7.37285 24.3444 6.47112 26.2135C5.56945 28.0826 5.36666 30.2173 5.89992 32.2252C6.43327 34.2332 7.66704 35.9797 9.37439 37.1436C11.0816 38.3074 13.1477 38.811 15.1932 38.5613L14.2231 34.9041C13.14 34.919 12.083 34.5693 11.2192 33.9101C10.3552 33.2506 9.73351 32.3193 9.45312 31.2637C9.17272 30.2079 9.24958 29.0881 9.67093 28.0811C10.0923 27.0743 10.8345 26.2381 11.7799 25.7046L10.8081 22.0509Z" fill="currentColor"></path><path d="M82.1879 33.5726L84.3677 27.3631H87.04L83.102 37.7228C82.8031 38.4837 82.4623 39.0337 82.082 39.3708C81.5019 39.8865 80.7107 40.1504 79.7088 40.1504C79.3188 40.1547 78.9296 40.1138 78.5489 40.0282V37.7386C78.8971 37.8399 79.2583 37.8874 79.6205 37.8801C79.8865 37.8962 80.1515 37.8279 80.3771 37.685C80.5647 37.5486 80.6964 37.3475 80.7463 37.1199L80.8871 36.7296L77.1074 27.3631H79.7788L82.1879 33.5726Z" fill="currentColor"></path><path fill-rule="evenodd" clip-rule="evenodd" d="M48.0467 27.1293C49.3413 27.1293 50.5879 27.6236 51.536 28.5127C52.0007 28.9341 52.37 29.4522 52.6181 30.0306C52.8664 30.609 52.9876 31.2346 52.9741 31.8649C52.9858 32.4976 52.8635 33.1257 52.6155 33.7071C52.3675 34.2884 51.9996 34.8098 51.536 35.2364C50.582 36.1138 49.3376 36.6004 48.0467 36.6004C46.7557 36.6004 45.5106 36.1139 44.5565 35.2364C44.098 34.8068 43.7346 34.2843 43.4893 33.7035C43.2439 33.1227 43.1228 32.4961 43.1333 31.8649C43.121 31.2362 43.2412 30.6119 43.4867 30.0341C43.7321 29.4561 44.0968 28.9373 44.5565 28.5127C45.5047 27.6235 46.7521 27.1293 48.0467 27.1293ZM48.0572 29.5234C47.7528 29.5234 47.4509 29.5849 47.1702 29.7036C46.8896 29.8225 46.6356 29.997 46.4223 30.216C46.2055 30.4305 46.0342 30.6874 45.9193 30.971C45.8044 31.2546 45.748 31.5586 45.754 31.8649C45.7477 32.1738 45.8037 32.481 45.9185 32.7675C46.0333 33.0541 46.2051 33.3143 46.4223 33.5322C46.8589 33.9639 47.4459 34.2063 48.0572 34.2063C48.6685 34.2062 49.2557 33.9639 49.6921 33.5322C49.908 33.3133 50.0786 33.0529 50.1933 32.7666C50.308 32.4804 50.364 32.1735 50.3595 31.8649C50.3654 31.5587 50.3098 31.2546 50.1951 30.971C50.0803 30.6876 49.9089 30.4304 49.6921 30.216C49.4788 29.997 49.224 29.8225 48.9433 29.7036C48.6627 29.5849 48.3614 29.5235 48.0572 29.5234Z" fill="currentColor"></path><path d="M57.1361 32.4713C57.1362 33.5998 57.7867 34.1201 58.7535 34.1201C59.7203 34.1201 60.3709 33.6062 60.3709 32.4713V27.3631H63.0258V32.7051C63.0257 33.9465 62.6213 34.9045 61.795 35.5607C60.9688 36.2169 59.9662 36.5539 58.7579 36.5539C57.55 36.5538 56.521 36.2166 55.6998 35.5607C54.8783 34.9045 54.4866 33.9481 54.4865 32.7051L54.4813 27.3631H57.1361V32.4713Z" fill="currentColor"></path><path d="M74.8042 27.3622H76.7732V29.7572H74.8042V32.9494C74.8042 33.8006 75.1383 34.1377 75.923 34.1377C76.1469 34.1326 76.3701 34.1093 76.5904 34.0683V36.4123C76.1709 36.5057 75.7418 36.5479 75.3124 36.538C73.2731 36.538 72.2534 35.4734 72.2534 33.3441L72.2552 29.7572H71.0944V27.3622H72.2552V23.9397H74.8042V27.3622Z" fill="currentColor"></path><path fill-rule="evenodd" clip-rule="evenodd" d="M91.3648 27.0792C93.7377 27.0793 95.162 28.197 95.162 30.0947V33.4645C95.1621 34.0849 95.3551 34.1562 95.8294 34.1562H95.8819V36.2515C95.5495 36.3959 95.1896 36.4628 94.8279 36.4466C94.3803 36.4647 93.939 36.3268 93.5796 36.0564C93.4001 35.8968 93.2611 35.6966 93.1746 35.4719C92.5952 36.181 91.5927 36.5371 90.1865 36.5372C88.2183 36.5372 86.8819 35.4556 86.8817 33.7967C86.8817 31.9572 88.0767 31.0165 90.8014 30.7504C92.0804 30.6262 92.5955 30.4846 92.5955 29.9348C92.5955 29.4382 92.1908 29.1894 91.3998 29.1894C90.4676 29.1894 89.694 29.5625 89.0441 30.3074L87.4967 28.9768C88.4288 27.7176 89.7122 27.0792 91.3648 27.0792ZM92.5947 32.1162C92.4494 32.2284 92.2782 32.3017 92.0969 32.3289L91.7768 32.3825C91.5837 32.4003 91.0921 32.4709 90.8627 32.524C89.9492 32.6659 89.4248 32.9143 89.4246 33.5348C89.4305 34.0846 89.8179 34.3513 90.609 34.3513C91.8566 34.3512 92.5945 33.8205 92.5947 32.7728V32.1162Z" fill="currentColor"></path><path d="M114.524 34.0841C115.104 33.5197 115.982 33.5197 116.545 34.0841C117.124 34.6485 117.124 35.5298 116.545 36.0942C115.982 36.6586 115.104 36.6586 114.524 36.0942C113.961 35.5298 113.961 34.6485 114.524 34.0841Z" fill="currentColor"></path><path d="M38.1674 23.7446C39.1093 23.7468 40.0402 23.954 40.8957 24.3519C41.7511 24.7498 42.5111 25.3297 43.1245 26.0509L41.2745 27.6294C40.8913 27.1779 40.4128 26.8178 39.8749 26.5756C39.3367 26.3332 38.7512 26.2138 38.1621 26.2275C37.6513 26.2166 37.1432 26.3106 36.6689 26.5026C36.1948 26.6946 35.7639 26.9814 35.4023 27.3455C35.0342 27.7054 34.7447 28.1389 34.5521 28.6182C34.3594 29.0976 34.2677 29.6128 34.2835 30.1299C34.2694 30.6457 34.3607 31.1593 34.5512 31.6381C34.7416 32.1171 35.0273 32.5514 35.3909 32.9143C35.7586 33.2743 36.1937 33.557 36.6707 33.7457C37.1474 33.9344 37.657 34.0255 38.1691 34.0138C38.7624 34.0266 39.3512 33.906 39.8924 33.6605C40.4334 33.4151 40.9136 33.0512 41.2981 32.5952L43.1438 34.1738C42.5331 34.904 41.7708 35.4906 40.9114 35.892C40.0521 36.2932 39.1159 36.4995 38.1691 36.4967C36.3233 36.4967 34.7761 35.8955 33.4928 34.6879C32.2095 33.4803 31.5745 31.9566 31.5744 30.1299C31.5744 28.3031 32.2142 26.7955 33.4928 25.5718C34.7713 24.3481 36.3199 23.7446 38.1674 23.7446Z" fill="currentColor"></path><path fill-rule="evenodd" clip-rule="evenodd" d="M112.615 36.3016H109.996V35.1309C109.732 35.9112 108.695 36.4606 107.359 36.4607C106.772 36.4738 106.187 36.3628 105.645 36.1337C105.103 35.9046 104.615 35.5626 104.213 35.1309C103.388 34.2369 102.939 33.0538 102.964 31.8323C102.936 30.6156 103.385 29.4368 104.213 28.5514C104.612 28.114 105.098 27.7668 105.641 27.5345C106.184 27.302 106.77 27.1892 107.359 27.2031C108.699 27.2032 109.735 27.7527 109.996 28.5329V23.9397H112.615V36.3016ZM107.834 29.5973C107.537 29.59 107.241 29.6443 106.967 29.7572C106.691 29.8701 106.443 30.0395 106.235 30.2538C106.023 30.456 105.855 30.7009 105.744 30.9728C105.631 31.2446 105.577 31.5379 105.585 31.8323C105.58 32.129 105.635 32.4237 105.746 32.6981C105.858 32.9726 106.025 33.2215 106.235 33.4284C106.445 33.6379 106.696 33.8029 106.969 33.9136C107.244 34.0244 107.538 34.0789 107.834 34.0736C108.135 34.0813 108.436 34.0278 108.717 33.9171C108.998 33.8064 109.254 33.6404 109.472 33.4284H109.468C109.687 33.2258 109.863 32.9784 109.98 32.7033C110.098 32.4286 110.158 32.1319 110.154 31.8323C110.159 31.535 110.1 31.2397 109.982 30.9675C109.863 30.6951 109.688 30.4518 109.468 30.2538C109.254 30.0374 109 29.8675 108.719 29.7546C108.437 29.6417 108.136 29.5881 107.834 29.5973Z" fill="currentColor"></path><path fill-rule="evenodd" clip-rule="evenodd" d="M127.08 27.0141C128.433 27.0142 129.593 27.4734 130.559 28.3905C131.526 29.2901 132 30.4014 132 31.7242C132 33.0469 131.526 34.1584 130.559 35.0755C129.593 35.975 128.433 36.4334 127.08 36.4334C125.709 36.4334 124.548 35.9751 123.581 35.0755C122.633 34.1584 122.158 33.0469 122.158 31.7242C122.158 30.4015 122.633 29.2901 123.581 28.3905C124.548 27.4734 125.709 27.0141 127.08 27.0141ZM127.08 29.396C126.43 29.396 125.885 29.6249 125.446 30.0833C125.006 30.5242 124.777 31.0716 124.777 31.7242C124.777 32.3768 125.006 32.941 125.446 33.3819C125.885 33.8228 126.43 34.0525 127.08 34.0525C127.729 34.0524 128.274 33.8229 128.714 33.3819C129.154 32.9233 129.382 32.3767 129.382 31.7242C129.382 31.0716 129.154 30.5242 128.714 30.0833C128.274 29.6248 127.729 29.396 127.08 29.396Z" fill="currentColor"></path><path d="M69.8111 27.1688C70.0406 27.1728 70.2697 27.1901 70.4969 27.2216V29.7054C70.2076 29.6467 69.913 29.617 69.6178 29.6166C68.1236 29.6166 67.2447 30.4676 67.2447 31.9396V36.3025H64.6248V27.3639H67.2447V28.5874C67.649 27.6831 68.5982 27.1688 69.8111 27.1688Z" fill="currentColor"></path><path d="M102 27.1688C102.23 27.1728 102.459 27.1901 102.687 27.2216V29.7054C102.397 29.6467 102.102 29.617 101.807 29.6166C100.313 29.6167 99.4334 30.4677 99.4334 31.9396V36.3025H96.8144V27.3639H99.4334V28.5874C99.8373 27.683 100.787 27.1689 102 27.1688Z" fill="currentColor"></path><path d="M121.117 36.2418H118.498V27.3516H121.117V36.2418Z" fill="currentColor"></path><path d="M119.799 23.6128C120.625 23.6128 121.293 24.2648 121.293 25.1113C121.293 25.9403 120.625 26.5931 119.799 26.5931C118.973 26.5931 118.305 25.9403 118.305 25.1113C118.305 24.2649 118.973 23.6128 119.799 23.6128Z" fill="currentColor"></path></svg>