<svg xmlns="http://www.w3.org/2000/svg" width="100%" viewBox="0 0 88 60" fill="white" class="hero-marquee-img is-medium"><path fill-rule="evenodd" clip-rule="evenodd" d="M59.9502 25.3027C61.5906 25.3028 62.8668 26.0324 63.5352 26.8223H63.7773V25.668H66.5723V37.8193C66.5722 42.8014 63.595 44.8672 60.1318 44.8672C56.8513 44.867 54.8464 42.6193 54.1172 40.8574L56.6689 39.7637C57.155 40.918 58.2488 42.1933 60.0713 42.1934C62.2586 42.1934 63.6562 40.796 63.6562 38.2441V37.2725H63.5352C62.8668 38.0623 61.5906 38.7909 59.9502 38.791C56.5477 38.791 53.6309 35.8139 53.6309 32.0469C53.631 28.2192 56.5478 25.3027 59.9502 25.3027ZM60.2539 28.0371C58.249 28.0371 56.6691 29.7381 56.6689 32.1074C56.6689 34.4162 58.1881 36.1787 60.2539 36.1787C62.3195 36.1786 63.8995 34.4775 63.8389 32.1689C63.8389 29.7994 62.2589 28.0372 60.2539 28.0371Z" fill="white"></path><path d="M12.1328 18.1328C15.2923 18.1328 17.6015 19.4093 19.3027 21.0498L17.2969 23.0547C16.0817 21.9003 14.3808 20.9883 12.1328 20.9883C7.87986 20.9883 4.65942 24.3909 4.65918 28.583C4.65918 32.7753 7.94046 36.1787 12.1328 36.1787C14.8669 36.1787 16.4468 35.0844 17.4189 34.1123C18.2695 33.3224 18.8158 32.107 18.998 30.5273H12.1328V27.6719H21.793C21.8537 28.1579 21.915 28.7662 21.915 29.4346C21.9149 31.561 21.3071 34.2338 19.4238 36.1172C17.6011 38.0007 15.2315 39.0342 12.1328 39.0342C6.36073 39.0342 1.5 34.355 1.5 28.583C1.50027 22.8112 6.36089 18.1328 12.1328 18.1328Z" fill="white"></path><path d="M71.7363 38.8516H68.8203V18.4365H71.7363V38.8516Z" fill="white"></path><path fill-rule="evenodd" clip-rule="evenodd" d="M30.4219 25.3027C34.1888 25.3027 37.2273 28.1584 37.2275 32.1074C37.2275 35.9959 34.1889 38.791 30.4219 38.791C26.655 38.7909 23.6172 35.9353 23.6172 32.0469C23.6173 28.1586 26.7158 25.3029 30.4219 25.3027ZM30.4219 28.0371C28.3563 28.0373 26.595 29.6775 26.5947 32.1074C26.5947 34.4769 28.3562 36.1785 30.4219 36.1787C32.4877 36.1787 34.25 34.477 34.25 32.1074C34.2498 29.6774 32.4875 28.0371 30.4219 28.0371Z" fill="white"></path><path fill-rule="evenodd" clip-rule="evenodd" d="M45.5488 25.3027C49.3157 25.3027 52.3542 28.1584 52.3545 32.1074C52.3545 35.9959 49.3159 38.791 45.5488 38.791C41.7819 38.7909 38.7441 35.9353 38.7441 32.0469C38.7443 28.1586 41.8428 25.3029 45.5488 25.3027ZM45.5488 28.0371C43.4833 28.0373 41.7219 29.6775 41.7217 32.1074C41.7217 34.4769 43.4832 36.1785 45.5488 36.1787C47.6146 36.1787 49.377 34.477 49.377 32.1074C49.3767 29.6774 47.6145 28.0371 45.5488 28.0371Z" fill="white"></path><path fill-rule="evenodd" clip-rule="evenodd" d="M80.4248 25.3027C83.8879 25.3029 85.6495 28.0983 86.1963 29.6172L86.5 30.4062L77.4473 34.1133C78.1764 35.5106 79.2096 36.1787 80.7285 36.1787C82.2474 36.1787 83.2805 35.4493 84.0703 34.2949L86.3789 35.8145C85.589 36.9081 83.8269 38.791 80.7285 38.791C76.9007 38.791 74.0449 35.8139 74.0449 32.0469C74.0451 28.037 76.9616 25.3027 80.4248 25.3027ZM80.5459 27.8545C79.0269 27.8546 76.9617 29.0705 77.0225 31.8652L83.0977 29.3135C82.7939 28.4629 81.7611 27.8545 80.5459 27.8545Z" fill="white"></path></svg>