<svg xmlns="http://www.w3.org/2000/svg" width="100%" viewBox="0 0 98 60" fill="white" class="hero-marquee-img is-xmedium"><path d="M26.9415 21C27.0157 21 27.0827 21.0022 27.1417 21.01C27.2712 21.0212 27.3718 21.1315 27.3718 21.2684L26.8211 30.8289V30.8328C26.8121 30.9635 27.0044 30.9863 27.0389 30.8665L28.8299 21.4639C28.847 21.3385 28.9537 21.2469 29.0892 21.2469L29.7826 21.3956C29.8549 21.4109 29.9178 21.4546 29.9597 21.5191L29.9636 21.513C30.0055 21.5757 30.0187 21.6519 30.0035 21.7261L26.6193 37.8401C26.4173 38.7402 25.6379 39.369 24.7233 39.369C24.201 39.3689 23.7035 39.1698 23.3227 38.8069V38.8085C23.3077 38.8019 22.7938 38.1863 12.4915 27.9199C12.398 27.8287 12.2495 27.9447 12.3197 28.0548L15.7782 33.3078C15.7879 33.3212 15.8074 33.3904 15.8074 33.4052C15.8073 33.4603 15.7842 33.5055 15.7406 33.534C15.7292 33.5414 15.6534 33.5722 15.6378 33.5724C15.5844 33.5724 15.5327 33.5475 15.4967 33.5041L10.9291 27.1577L10.9191 27.1447C10.8407 27.0365 10.6755 27.1295 10.7304 27.2475L14.3232 35.4624C14.3269 35.472 14.3362 35.5295 14.3362 35.5406C14.3362 35.5921 14.3151 35.6414 14.281 35.6755C14.2464 35.7153 14.1909 35.74 14.1337 35.74C14.0596 35.7399 13.9933 35.6982 13.9588 35.6318L9.67728 27.0834C9.61411 26.9659 9.4406 27.029 9.47325 27.1562L12.1862 37.4214C12.1959 37.5639 12.1594 37.6345 12.0911 37.6798C12.053 37.7083 12.0057 37.7235 11.9561 37.7235C11.8551 37.7235 11.7673 37.6609 11.7291 37.564L8.40249 27.3172V27.3142C8.36239 27.1887 8.17327 27.2285 8.18849 27.3617L9.66885 38.8292C9.69 38.9375 9.62548 39.0465 9.5093 39.0922C9.44657 39.1185 9.41586 39.1244 9.38505 39.1244C9.2615 39.1243 9.15861 39.0347 9.14113 38.9112L7.20363 27.9084C7.17876 27.7756 6.98973 27.7907 6.98963 27.9253L7.17141 39.5913C7.17141 39.7052 7.08887 39.7999 6.98196 39.8114C6.97626 39.8123 6.83945 39.8344 6.83545 39.8344C6.68332 39.8343 6.58968 39.7469 6.58003 39.6312L5.98175 28.7273C5.97206 28.5926 5.77596 28.5848 5.76852 28.7273L4.81587 39.7723C4.80427 39.9013 4.69729 40 4.56966 40H4.52594C4.47636 40 4.41946 39.9997 4.37023 39.9923C4.23886 39.9808 4.13788 39.8708 4.13782 39.7339L4.68778 30.1695C4.69558 30.0348 4.49917 30.0119 4.46688 30.1373L2.67817 39.5361C2.65887 39.6615 2.55179 39.7531 2.41815 39.7531L1.72476 39.6044C1.6506 39.5891 1.58719 39.5454 1.54528 39.4809C1.50385 39.4183 1.49096 39.3423 1.50616 39.2685L4.89028 23.1507C5.09046 22.2502 5.8699 21.6211 6.78636 21.6211C7.30825 21.6211 7.80574 21.821 8.18695 22.1839V22.1823C8.24408 22.2342 19.0166 33.0709 19.0166 33.0709C19.1116 33.1652 19.2603 33.0476 19.1899 32.9375L15.7307 27.6845C15.721 27.6711 15.7023 27.6023 15.7023 27.5871C15.7023 27.5341 15.7256 27.4884 15.7675 27.4598C15.7814 27.4522 15.8563 27.4225 15.8718 27.4223C15.9252 27.4223 15.9765 27.4467 16.0129 27.4905L20.579 33.8323L20.5905 33.8499C20.6685 33.9576 20.8337 33.8651 20.7784 33.7472L17.1865 25.5315C17.1827 25.5218 17.1734 25.4647 17.1734 25.4533C17.1735 25.4022 17.1925 25.3532 17.2287 25.3191C17.2628 25.2791 17.3181 25.254 17.3752 25.2539C17.4494 25.2539 17.5166 25.2957 17.5508 25.3643L21.8285 33.9013L21.8346 33.9128C21.8974 34.0281 22.0649 33.9675 22.0387 33.8461L19.3249 23.5763C19.3157 23.4359 19.3515 23.3654 19.42 23.3202C19.4582 23.2916 19.5057 23.2765 19.555 23.2765C19.656 23.2765 19.7442 23.3376 19.7821 23.4344L23.1094 33.6858C23.1477 33.8094 23.3304 33.7736 23.3211 33.6444L21.8423 22.1708C21.8215 22.0643 21.8838 21.9553 22.0019 21.9078C22.065 21.8815 22.0957 21.8756 22.1261 21.8756C22.25 21.8757 22.3529 21.9653 22.37 22.0888L24.3083 33.0916C24.3309 33.2245 24.5155 33.2092 24.5192 33.0801L24.3405 21.4102C24.3407 21.2964 24.4228 21.2016 24.5292 21.1902C24.5361 21.1891 24.6721 21.1672 24.6757 21.1672C24.8281 21.1672 24.9218 21.2546 24.9311 21.3703L25.5332 32.2804C25.5469 32.4055 25.7348 32.4129 25.7426 32.2743L26.696 21.2277C26.7073 21.0987 26.812 21 26.9415 21Z" fill="white"></path><path fill-rule="evenodd" clip-rule="evenodd" d="M89.2631 24.1667C93.7392 24.1667 96.4999 26.5566 96.5 30.5C96.5 34.4435 93.7382 36.8333 89.2631 36.8333C84.7884 36.8333 82.0255 34.4436 82.0255 30.5C82.0255 26.5565 84.7873 24.1667 89.2631 24.1667ZM89.2631 25.9762C86.1026 25.9762 84.0566 27.5974 84.0565 30.5C84.0565 33.4027 86.0854 35.0238 89.2631 35.0238C92.4407 35.0238 94.4536 33.4026 94.4536 30.5C94.4535 27.5986 92.424 25.9762 89.2631 25.9762Z" fill="white"></path><path d="M41.1798 24.619C41.4638 24.6191 41.7368 24.7368 41.9384 24.9449L50.2575 33.5409V24.8238C50.2575 24.7106 50.3463 24.6191 50.4554 24.619H51.988C52.0971 24.6191 52.1851 24.7106 52.1851 24.8238L52.1859 36.1755C52.1859 36.2886 52.0982 36.3802 51.9887 36.3802H50.8827C50.5991 36.3802 50.3272 36.2637 50.1256 36.0566L41.426 27.1064V36.177C41.4259 36.2901 41.3375 36.381 41.2281 36.381H39.7125C39.6035 36.3809 39.5155 36.29 39.5154 36.177V24.8238C39.5154 24.7106 39.6034 24.6191 39.7125 24.619H41.1798Z" fill="white"></path><path d="M66.7509 24.619C66.863 24.619 66.9534 24.7106 66.9534 24.8238V26.1778C66.9534 26.291 66.863 26.3826 66.7509 26.3826H57.3303V29.5255H65.256C65.3676 29.5255 65.4583 29.6164 65.4585 29.7294V31.0843C65.4585 31.1974 65.3677 31.289 65.256 31.289H57.3303V34.6159H66.9181C67.0299 34.6159 67.1198 34.7074 67.1198 34.8206V36.177C67.1197 36.2901 67.0298 36.381 66.9181 36.381H55.9351C55.6148 36.3809 55.3546 36.1178 55.3544 35.7936V25.2071C55.3544 24.8828 55.6148 24.6191 55.9351 24.619H66.7509Z" fill="white"></path><path d="M80.9347 24.619C81.0617 24.619 81.1275 24.7752 81.0406 24.8713L76.0189 30.4333L81.1089 36.1302C81.1946 36.2263 81.1284 36.3809 81.0022 36.381H79.0325C78.9302 36.3809 78.8322 36.3376 78.7625 36.2598L74.7633 31.8111L70.958 36.0275C70.7543 36.2538 70.4683 36.3809 70.1688 36.381H68.6224C68.496 36.3809 68.4293 36.2263 68.5151 36.1302L73.5889 30.4502L68.5665 24.8721C68.4796 24.776 68.5461 24.6206 68.6731 24.6206H70.6413C70.7437 24.6206 70.8418 24.6641 70.9113 24.741L74.8614 29.1229L78.5853 24.9756C78.7891 24.7485 79.0766 24.619 79.3761 24.619H80.9347Z" fill="white"></path></svg>