<svg xmlns="http://www.w3.org/2000/svg" width="100%" height="100%" viewBox="0 0 132 60" fill="none"><path fill-rule="evenodd" clip-rule="evenodd" d="M25.1764 43C23.7822 42.8523 23.7819 42.8527 23.162 42.6826C23.0217 42.6446 22.8812 42.6066 22.7367 42.5675C22.5873 42.526 22.4379 42.4841 22.2839 42.4414C22.0436 42.376 22.0434 42.3761 21.7983 42.3094C21.3622 42.1905 20.9263 42.0705 20.4906 41.9505C20.0304 41.824 19.5696 41.6985 19.1092 41.573C18.9207 41.5217 18.7321 41.4704 18.5436 41.419C18.4496 41.3934 18.3555 41.3675 18.2586 41.3411C17.9702 41.2625 17.6814 41.1838 17.393 41.105C15.2876 40.5299 13.1785 39.967 11.0692 39.4047C8.37665 38.6866 5.68846 37.9542 3 37.2219V22.7781C10.1625 20.8084 10.1627 20.8082 12.2287 20.283C12.6826 20.1613 13.1359 20.0381 13.5888 19.9132C14.6609 19.6193 15.7345 19.3303 16.8089 19.0439C17.0238 18.9866 17.0238 18.9865 17.243 18.928C17.9842 18.7305 18.7256 18.5333 19.4669 18.3364C19.7632 18.2576 20.0594 18.1782 20.3556 18.0994C20.4985 18.0615 20.6416 18.0242 20.7889 17.9852C21.4332 17.8136 22.0763 17.6388 22.7163 17.4528C22.8232 17.4219 22.9302 17.3907 23.0403 17.3589C23.2339 17.3024 23.4272 17.2456 23.6201 17.187C24.1871 17.0215 24.5572 17 25.1764 17V43ZM23.1105 31.7079C22.7998 31.7079 22.7996 31.7077 22.0211 31.9009C21.906 31.93 21.7938 31.9581 21.682 31.9864C20.8609 32.1929 20.0442 32.4104 19.2317 32.6457C18.0651 32.9856 16.8947 33.304 15.716 33.6038C14.3848 33.9421 13.0556 34.2871 11.7298 34.6439C11.1387 34.803 10.5476 34.9623 9.95504 35.1162C9.78734 35.1595 9.62419 35.2011 9.46142 35.2432C9.14423 35.3258 8.8269 35.4086 8.5097 35.4911C8.35547 35.5304 8.20572 35.5682 8.05603 35.6063C7.84617 35.6612 7.84618 35.6616 7.64054 35.7154C7.5153 35.7476 7.39366 35.779 7.2721 35.8102C6.995 35.9098 6.99435 35.9098 6.85661 36.1725C8.5129 36.5834 10.1584 37.0294 11.8034 37.4792C12.0969 37.5595 12.3907 37.6395 12.6841 37.7196C13.2615 37.8772 13.839 38.035 14.4162 38.1927C15.3501 38.4479 16.284 38.7026 17.2181 38.957C17.7591 39.1042 18.3003 39.2515 18.841 39.3996C19.2238 39.5046 19.6068 39.6095 19.9899 39.7136C20.1289 39.7513 20.2642 39.7879 20.3991 39.8245C20.616 39.8843 20.6162 39.8843 20.8288 39.943C20.9718 39.9816 21.1109 40.0189 21.2496 40.0564C21.8711 40.2262 21.871 40.2269 23.1105 40.3746V31.7079ZM5.20441 34.3342C5.47935 34.3342 5.47958 34.3335 5.8019 34.2597C5.93964 34.2243 6.07393 34.1899 6.20763 34.1556C6.36064 34.1164 6.50922 34.0786 6.65774 34.0405C6.82187 33.998 6.9814 33.9565 7.14071 33.9152C8.28143 33.621 9.42001 33.3213 10.5525 32.9995C15.6639 31.5844 15.6642 31.5838 20.7951 30.2336C20.9267 30.1989 21.0545 30.1657 21.1822 30.132V29.8688C17.8473 28.9667 14.5109 28.0698 11.1722 27.1808C10.7969 27.0809 10.4209 26.9805 10.0456 26.8803C9.59331 26.7595 9.14057 26.6392 8.68814 26.5189C8.43173 26.4508 8.43166 26.4503 8.18032 26.3835C7.93972 26.3192 7.93918 26.3196 7.70357 26.2566C7.47727 26.1966 7.47703 26.1961 7.25523 26.1372C6.59888 25.9625 6.59865 25.9629 5.20441 25.6675V34.3342ZM23.1105 19.6271C22.5034 19.6271 22.5027 19.6271 19.815 20.3423C19.6711 20.3809 19.5312 20.4182 19.3915 20.4557C18.4612 20.7043 17.5324 20.9564 16.6082 21.225C15.1871 21.6391 13.7561 22.0157 12.3219 22.3862C12.1266 22.4366 11.9313 22.4873 11.736 22.5377C11.5889 22.5757 11.5888 22.5758 11.4448 22.613C9.91277 23.0086 8.38416 23.4175 6.85661 23.8284C6.99435 24.091 6.99489 24.0912 7.25346 24.1872C7.37016 24.2178 7.48377 24.2481 7.59704 24.2778C7.79317 24.33 7.79351 24.3298 7.98589 24.3811C8.13097 24.4185 8.27212 24.4547 8.41293 24.4911C8.87132 24.6123 9.33017 24.7337 9.78902 24.8533C10.1023 24.9349 10.4153 25.0173 10.7283 25.0996C11.1845 25.2198 11.641 25.34 12.0973 25.4602C13.3159 25.7799 14.5331 26.1045 15.7479 26.4368C16.739 26.708 17.7308 26.9763 18.7239 27.2409C18.932 27.2962 19.1407 27.3513 19.3489 27.4068C19.6687 27.4926 19.9885 27.5789 20.3086 27.6641C20.4129 27.6918 20.5145 27.7184 20.6158 27.7453C21.4434 27.9686 22.2627 28.1321 23.1105 28.2938V19.6271Z" fill="currentColor"></path><path d="M69.0569 26.5782C69.1679 26.5788 69.279 26.5793 69.3933 26.5799C69.6686 26.5814 69.9438 26.5833 70.219 26.5858C70.1404 27.2431 69.9877 27.8285 69.7458 28.4495C69.6709 28.647 69.5952 28.8444 69.5203 29.0419C69.4784 29.1515 69.4366 29.2616 69.3933 29.3745C69.1231 30.0827 68.8577 30.7927 68.5917 31.5023C68.533 31.6584 68.4746 31.8146 68.4141 31.9754C67.9544 33.2009 67.5064 34.4301 67.0691 35.663C65.9649 38.7428 65.9645 38.7428 64.6232 39.717C63.8849 39.9255 62.802 40.0554 62.0921 39.717V38.0099C62.3534 37.9801 62.6148 37.9509 62.884 37.9202C63.5555 37.8159 63.5556 37.8157 64.1065 37.4521C64.5996 36.512 64.6233 35.8453 64.3045 34.8479C64.1296 34.3591 63.947 33.8733 63.762 33.388C63.6945 33.2082 63.6269 33.0278 63.5596 32.848C63.3832 32.3774 63.2059 31.9071 63.0278 31.4371C62.7424 30.683 62.4591 29.9279 62.1755 29.1731C62.0766 28.9103 61.9767 28.6478 61.8772 28.3852C61.817 28.2257 61.7572 28.0662 61.6952 27.9019C61.6421 27.7616 61.5884 27.6207 61.5336 27.4762C61.4031 27.1114 61.4032 27.1109 61.2655 26.5858H63.7452C64.0205 27.2858 64.2846 27.982 64.5255 28.6924C64.5582 28.7883 64.5904 28.8847 64.6241 28.9835C64.6925 29.1846 64.761 29.3859 64.8292 29.587C64.9332 29.8939 65.0377 30.2011 65.1426 30.5078C65.2093 30.7043 65.2765 30.9012 65.3432 31.0977C65.3897 31.2337 65.3898 31.234 65.4373 31.3728C65.5919 31.8312 65.7248 32.2828 65.8111 32.7574C65.8352 32.6818 65.8599 32.6059 65.8848 32.5281C65.919 32.4209 65.9534 32.3135 65.9886 32.2031C66.0272 32.0822 66.0652 31.9611 66.1049 31.8366C66.1908 31.5677 66.2773 31.2989 66.3633 31.03C66.5934 30.3102 66.8225 29.59 67.0495 28.8693C67.1149 28.6625 67.1143 28.6621 67.1809 28.4512C67.2653 28.1841 67.3494 27.9169 67.4331 27.6497C67.4712 27.5292 67.5101 27.409 67.5494 27.2849C67.5829 27.1783 67.616 27.0714 67.6506 26.9616C67.7394 26.7174 67.7393 26.7171 67.877 26.5858C68.2713 26.5762 68.6627 26.5743 69.0569 26.5782Z" fill="currentColor"></path><path fill-rule="evenodd" clip-rule="evenodd" d="M119.541 26.4098C120.626 26.439 121.433 26.7205 122.286 27.3746C123.601 28.7231 123.664 30.1651 123.664 31.9703H117.051C117.609 33.4782 117.609 33.4786 118.842 34.3342C119.807 34.4147 120.588 34.3477 121.459 33.9398L121.769 33.6444C121.849 33.5686 121.929 33.4931 122.011 33.415C122.474 33.4612 122.697 33.6303 123.009 33.9482C123.117 34.056 123.117 34.0566 123.227 34.1666C123.28 34.2218 123.333 34.2773 123.388 34.3342C123.209 34.867 123.031 35.1029 122.535 35.4006C122.434 35.4632 122.333 35.5265 122.228 35.591C120.907 36.2885 119.646 36.3522 118.154 36.1725C116.994 35.8455 116.019 35.1863 115.366 34.2106C114.607 32.865 114.492 31.299 114.805 29.8138C115.222 28.5109 115.957 27.5496 117.19 26.849C117.886 26.5139 118.474 26.3912 119.247 26.4064C119.344 26.4075 119.441 26.4086 119.541 26.4098ZM119.807 28.1626C119.203 28.0681 118.809 28.113 118.257 28.3758C117.486 29.0107 117.337 29.4146 117.19 30.3952H121.322C121.275 29.9934 121.23 29.6029 121.184 29.2129C120.837 28.6488 120.449 28.3861 119.807 28.1626Z" fill="currentColor"></path><path fill-rule="evenodd" clip-rule="evenodd" d="M47.4913 27.6361C49.2049 26.1485 51.7247 25.9455 53.6819 27.1444C54.5885 27.803 55.2002 28.8263 55.4806 29.8688C55.6755 31.722 55.586 33.385 54.37 34.908C53.4901 35.7648 52.4945 36.2002 51.2431 36.252C49.7169 36.2618 48.5757 35.9859 47.4469 34.9596C46.3716 33.8795 46.0279 32.5005 46.0486 31.0427C46.1085 29.7432 46.5338 28.5763 47.4913 27.6361ZM51.4864 28.1617C50.3081 27.9995 49.5344 28.2399 48.8692 29.212C48.3123 30.2761 48.2626 31.6105 48.5593 32.7574C48.903 33.5437 49.2938 34.0834 50.1085 34.4645C50.7748 34.5417 51.4202 34.5474 51.9987 34.1852C52.0819 34.1214 52.1629 34.0593 52.2437 33.9973C52.3269 33.9359 52.4079 33.8758 52.4887 33.8162C53.0757 33.1459 53.1899 32.3914 53.1892 31.548C53.1869 31.4375 53.1843 31.3302 53.1821 31.223C53.1844 30.662 53.1894 30.1553 53.0134 29.6166C52.649 28.9543 52.1891 28.4968 51.4864 28.1617Z" fill="currentColor"></path><path d="M128.209 26.5858H130V28.1617H128.209C128.219 28.9774 128.231 29.793 128.246 30.6085C128.25 30.8861 128.254 31.1638 128.257 31.4413C128.262 31.84 128.269 32.2386 128.277 32.6372C128.278 32.7615 128.279 32.8858 128.279 33.0139C128.284 33.1873 128.283 33.1875 128.287 33.3643C128.289 33.466 128.29 33.5683 128.292 33.6732C128.361 34.0081 128.479 34.1271 128.76 34.3333C129.074 34.3808 129.075 34.3807 129.406 34.3579C129.602 34.3498 129.798 34.3417 130 34.3333V36.0404C129.144 36.3124 128.026 36.3188 127.159 36.0667C126.413 35.6747 126.114 35.0884 125.867 34.3333C125.8 33.8523 125.803 33.3816 125.814 32.8971C125.815 32.7648 125.815 32.6322 125.816 32.4959C125.819 32.0771 125.827 31.6578 125.834 31.2391C125.836 30.9536 125.838 30.6681 125.841 30.3826C125.847 29.686 125.856 28.9894 125.867 28.2929H124.353V26.5858H125.867V24.2228H128.209V26.5858Z" fill="currentColor"></path><path d="M107.685 30C108.558 29.076 108.559 29.0762 109.424 28.1456C109.504 28.0627 109.583 27.9797 109.665 27.8943C109.899 27.6415 109.899 27.6413 110.066 27.3382C110.307 26.9741 110.457 26.8016 110.854 26.5867C111.762 26.4551 112.696 26.5226 113.609 26.5867C113.609 26.8488 113.608 26.8492 113.319 27.1376C113.256 27.1954 113.192 27.2533 113.127 27.3128C112.751 27.6617 112.398 28.0332 112.042 28.4004C111.963 28.4809 111.884 28.5612 111.804 28.6441C111.246 29.2184 110.698 29.7995 110.165 30.3944C110.386 31.031 110.764 31.5224 111.172 32.06C111.243 32.1561 111.316 32.2522 111.39 32.3512C111.789 32.8833 112.192 33.4129 112.596 33.9415C112.718 34.1015 112.718 34.1015 112.842 34.2648C113.001 34.4718 113.159 34.6789 113.318 34.8852C113.39 34.9791 113.463 35.0728 113.537 35.1695C113.6 35.2523 113.664 35.3356 113.73 35.4209C113.884 35.6468 113.884 35.647 114.021 36.0404C111.848 36.3303 111.848 36.3307 111.154 35.8771C110.699 35.4269 110.38 34.8933 110.061 34.3511C109.777 33.8872 109.439 33.4615 109.106 33.0291C108.99 32.8749 108.874 32.7199 108.759 32.5653C108.678 32.4556 108.596 32.3457 108.512 32.2327C108.141 32.4404 107.936 32.5656 107.685 32.8895C107.56 33.4271 107.563 33.9569 107.564 34.506C107.562 34.6533 107.559 34.801 107.556 34.9529C107.55 35.3153 107.548 35.6779 107.548 36.0404H105.205V22.6469H107.548C107.593 25.0734 107.638 27.4999 107.685 30Z" fill="currentColor"></path><path fill-rule="evenodd" clip-rule="evenodd" d="M89.1931 27.2104C90.6625 26.2562 92.8403 26.0466 94.4622 26.849C94.5491 26.8906 94.6363 26.9323 94.7259 26.9751C95.4786 27.4058 95.8174 28.0506 96.1153 28.8193C96.2034 29.3132 96.2078 29.7935 96.2023 30.2937C96.2044 30.4973 96.2045 30.4975 96.2067 30.705C96.2108 31.1349 96.2104 31.565 96.2094 31.9949C96.2106 32.4261 96.2128 32.8577 96.2165 33.2889C96.2185 33.556 96.2194 33.8233 96.2183 34.0904C96.2188 34.2123 96.2195 34.3347 96.22 34.4603C96.2198 34.5661 96.2194 34.672 96.2192 34.7811C96.2521 35.2256 96.2519 35.2259 96.5281 36.0413H94.0485C94.003 35.7813 93.9577 35.5212 93.9109 35.2533C93.6979 35.4076 93.6975 35.4074 93.4803 35.5648C92.46 36.304 91.2832 36.2719 90.0543 36.1725C89.198 35.9631 88.6029 35.4242 88.126 34.7277C87.7578 33.9992 87.745 33.2899 87.8498 32.4959C88.1733 31.6887 88.8176 31.03 89.6432 30.6661C90.3212 30.4155 90.9433 30.2461 91.6745 30.2505C91.7968 30.2509 91.9196 30.2518 92.0456 30.2522C92.1723 30.2533 92.2995 30.2545 92.43 30.2556C92.5588 30.2562 92.6879 30.2567 92.8206 30.2573C93.1381 30.2588 93.4558 30.2605 93.7733 30.2632C93.7539 29.3425 93.7534 29.3424 93.3081 28.5485C92.7219 28.136 92.1434 28.0702 91.4312 28.1626C90.737 28.4935 90.6275 28.6337 90.3295 29.3441H87.9883C88.1569 28.3798 88.4001 27.8105 89.1931 27.2104ZM93.7733 31.5776C92.5129 31.532 91.4077 31.4329 90.3987 32.2505C90.153 32.6994 90.0953 33.0231 90.1226 33.5259C90.2166 33.9096 90.4154 34.1381 90.7547 34.3604C91.3706 34.6072 91.9967 34.5298 92.6289 34.3757C92.7369 34.3172 92.8419 34.2606 92.9467 34.2038C93.4029 33.9823 93.4031 33.9817 93.6135 33.8145C93.8986 33.3367 93.8986 33.3367 93.7733 31.5776Z" fill="currentColor"></path><path fill-rule="evenodd" clip-rule="evenodd" d="M34.6812 23.3036C42.3604 23.3036 42.3607 23.303 43.7456 24.5833C44.7447 25.5951 44.9555 26.4517 44.9229 27.8359C44.8247 28.7516 44.4725 29.6143 43.7723 30.2632C42.3879 31.3297 40.692 31.3709 38.9853 31.3381C38.3832 31.33 37.7811 31.3219 37.1608 31.3135V36.0404H34.6812V23.3036ZM38.813 25.1081C38.2513 25.1192 37.7061 25.1303 37.1608 25.1411V29.4744C37.7783 29.48 38.3779 29.4859 38.9773 29.4913C39.1707 29.4938 39.3586 29.4957 39.5463 29.4981C39.7002 29.4988 39.8498 29.4991 39.9991 29.4998C40.7045 29.5062 41.2315 29.4384 41.8165 29.0453C42.2106 28.6618 42.3802 28.4045 42.4521 27.8621C42.4588 26.9002 42.4049 26.384 41.7064 25.6667C40.8986 25.1713 40.2825 25.0846 39.3279 25.0937C39.0682 25.101 39.0676 25.1009 38.813 25.1081Z" fill="currentColor"></path><path d="M59.8885 36.0404H57.5465V22.6469H59.8885V36.0404Z" fill="currentColor"></path><path d="M74.8658 26.7712C75.8555 26.1829 77.4181 26.2761 78.44 26.75C78.8818 26.9959 79.2592 27.2546 79.5853 27.6361C79.6421 27.5839 79.699 27.5317 79.7575 27.4779C80.8038 26.5628 81.6894 26.3762 83.109 26.4081C83.942 26.4898 84.5468 26.7266 85.1465 27.2832C85.7977 28.31 85.8399 29.0917 85.8239 30.2827C85.8233 30.4474 85.8227 30.6123 85.8221 30.782C85.8202 31.2174 85.8169 31.6526 85.8123 32.088C85.8081 32.5333 85.8064 32.979 85.8044 33.4243C85.7998 34.2963 85.7924 35.1685 85.7839 36.0404H83.5804C83.5784 35.837 83.5763 35.633 83.5742 35.4234C83.5662 34.6686 83.5554 33.9134 83.544 33.1586C83.5394 32.832 83.5356 32.5051 83.5325 32.1785C83.5279 31.709 83.5206 31.2396 83.5129 30.7702C83.5121 30.6242 83.5112 30.4779 83.5103 30.3275C83.5076 30.191 83.5042 30.0544 83.5014 29.9137C83.4999 29.7938 83.4985 29.6732 83.497 29.5497C83.4304 29.1404 83.2808 28.8905 83.0291 28.5553C82.4725 28.2369 81.8708 28.2145 81.2384 28.2929C80.6633 28.5296 80.3238 28.835 79.999 29.3432C79.9135 29.8522 79.9153 30.358 79.9147 30.8726C79.9124 31.0202 79.9099 31.1682 79.9076 31.3203C79.9009 31.7911 79.898 32.262 79.8951 32.7329C79.8913 33.0525 79.8871 33.3722 79.8827 33.6918C79.8725 34.4746 79.8656 35.2576 79.8605 36.0404H77.5194C77.5188 35.833 77.5182 35.6253 77.5176 35.4116C77.5146 34.642 77.5069 33.8723 77.4981 33.1027C77.4949 32.7698 77.4935 32.4369 77.4928 32.104C77.4915 31.6251 77.485 31.1458 77.4786 30.6669C77.4791 30.5182 77.4798 30.3691 77.4803 30.2158C77.4706 29.3799 77.4707 29.3795 77.0568 28.6611C76.4611 28.2728 75.8846 28.2005 75.1774 28.2929C74.7246 28.467 74.3016 28.6499 74.0756 29.0809C74.0592 29.3033 74.0511 29.5265 74.0472 29.7495C74.0445 29.8887 74.042 30.0283 74.0392 30.1718C74.0369 30.3226 74.0345 30.4735 74.0321 30.6288C74.0292 30.7829 74.0262 30.9373 74.0232 31.096C74.0142 31.5896 74.0065 32.0835 73.9984 32.5771C73.9924 32.9112 73.9867 33.2452 73.9806 33.5792C73.9658 34.3996 73.9515 35.2201 73.938 36.0404H71.596V26.5858H73.8004C73.8458 26.8458 73.8912 27.1059 73.938 27.3738C74.0226 27.3185 74.1074 27.2632 74.1946 27.2062C74.3059 27.1342 74.4172 27.0619 74.5319 26.9878C74.6421 26.9163 74.7523 26.8448 74.8658 26.7712Z" fill="currentColor"></path><path d="M101.511 26.7712C102.146 26.3039 102.931 26.4461 103.691 26.4546V28.5553C103.273 28.5715 103.273 28.5717 102.847 28.5883C101.997 28.6483 101.54 28.7676 100.936 29.3432C100.919 29.5527 100.911 29.7629 100.908 29.9729C100.905 30.1069 100.902 30.2411 100.899 30.3792C100.896 30.5249 100.895 30.6708 100.893 30.821C100.89 30.9694 100.887 31.1183 100.884 31.2712C100.875 31.7474 100.866 32.2236 100.858 32.6999C100.852 33.0219 100.846 33.3444 100.84 33.6664C100.825 34.4577 100.812 35.2491 100.798 36.0404H98.4564V26.5858H100.66C100.705 26.8458 100.752 27.1059 100.798 27.3738C100.863 27.3185 100.928 27.2632 100.995 27.2062C101.08 27.1342 101.166 27.0619 101.255 26.9878C101.339 26.9163 101.424 26.8448 101.511 26.7712Z" fill="currentColor"></path></svg>