<svg xmlns="http://www.w3.org/2000/svg" width="100%" viewBox="0 0 76 60" fill="white" class="hero-marquee-img is-small"><path fill-rule="evenodd" clip-rule="evenodd" d="M18.2429 25.2307C22.1738 25.2308 24.9887 28.0433 24.9887 32.002C24.9887 32.6949 24.9208 33.3487 24.7716 33.9752H14.9243C15.3732 35.4812 16.7062 36.6535 18.7054 36.6535C19.8071 36.6534 21.3709 36.2671 22.214 35.6277L23.5471 38.7733C22.3093 39.5997 20.4189 40 18.7597 40C14.1215 40 11.0065 37.067 11.0065 32.6554C11.0065 28.5099 13.904 25.2307 18.2429 25.2307ZM18.1876 28.5228C16.4199 28.523 15.2225 29.6433 14.8419 31.3356H21.0307C21.0307 29.4962 19.7519 28.5228 18.1876 28.5228Z" fill="white"></path><path fill-rule="evenodd" clip-rule="evenodd" d="M41.2139 39.7861H37.1202V38.0802H36.9975C35.9366 39.4129 34.2909 40 32.5499 40C28.388 39.9998 25.8312 36.7335 25.8312 32.6149C25.8314 28.4962 28.5656 25.2446 32.6866 25.2446C34.3593 25.2446 35.6375 25.6978 36.8206 26.804H36.902L36.9161 19.2594H41.2139V39.7861ZM33.5432 28.8703C31.4378 28.8704 29.9652 30.5017 29.9652 32.6188C29.9653 34.7358 31.4379 36.3673 33.5432 36.3673C34.5404 36.3673 35.3951 36.0007 36.0193 35.3901L36.9784 36.3673H37.1212V32.6188C37.1212 30.5017 35.6486 28.8703 33.5432 28.8703Z" fill="white"></path><path fill-rule="evenodd" clip-rule="evenodd" d="M57.6291 39.7861H53.5354V38.0802H53.4137C52.3529 39.4129 50.707 39.9989 48.9661 39.999C44.804 39.999 42.2464 36.7336 42.2464 32.6149C42.2465 28.4962 44.9807 25.2446 49.1018 25.2446C50.7746 25.2446 52.0536 25.6976 53.2368 26.804H53.3182L53.3313 19.2594H57.6291V39.7861ZM49.9382 28.8693C47.8328 28.8693 46.3602 30.5017 46.3602 32.6188C46.3604 34.7358 47.8329 36.3673 49.9382 36.3673C50.9355 36.3673 51.7902 36.0007 52.4144 35.3901L53.3735 36.3673H53.5163V32.6188C53.5163 30.5017 52.0437 28.8693 49.9382 28.8693Z" fill="white"></path><path d="M10.1771 25.2307C10.8841 25.2307 11.5649 25.3638 11.8369 25.5238L10.1097 29.5495C9.89194 29.443 9.37495 29.3218 8.88522 29.3218C8.39563 29.3218 7.90608 29.4426 7.4305 29.6693C6.49202 30.1359 5.79783 31.0687 5.79783 32.4149V39.7861H1.5V25.4436H5.67618V27.4564H5.75761C6.73699 26.177 8.23265 25.2308 10.1771 25.2307Z" fill="white"></path><path d="M64.0231 39.7861H59.7252V25.4446H64.0231V39.7861Z" fill="white"></path><path d="M72.3573 25.4446H75.5V29.0297H72.3573V39.7861H68.0595V29.0297H64.9309V25.4446H68.0595V21.5455H72.3573V25.4446Z" fill="white"></path><path d="M61.8736 19C63.3154 19 64.4984 20.1594 64.4986 21.5723C64.4986 22.9853 63.3155 24.1455 61.8736 24.1455C60.4318 24.1455 59.2487 22.9852 59.2487 21.5723C59.2488 20.1594 60.4319 19.0001 61.8736 19Z" fill="white"></path></svg>