<svg xmlns="http://www.w3.org/2000/svg" width="100%" height="100%" viewBox="0 0 88 60" fill="none"><path fill-rule="evenodd" clip-rule="evenodd" d="M58.7573 21H61.9511V38.3654H58.7573V21ZM84.5 28.3231V25.6308H81.2236V22.1308H78.0299V34.9192C78.0299 36.1038 78.3328 36.9923 78.9385 37.5846C79.5442 38.1769 80.4528 38.4731 81.6917 38.4731H84.5V35.7808H82.4351C81.9946 35.7808 81.6642 35.6731 81.4715 35.4846C81.3063 35.3231 81.1961 34.8654 81.1961 34.3808V28.3231H84.5ZM37.1445 34.9731L40.4208 25.6038H43.7522L39.0167 38.3385H35.2447L30.5092 25.6308H33.8406L37.1445 34.9731ZM72.8538 31.9846C72.8538 32.7923 72.7162 33.4923 72.4959 34.0577C72.2481 34.6231 71.8902 35.0808 71.4497 35.3769C71.0092 35.6731 70.4585 35.8077 69.8253 35.8077C68.9167 35.8077 68.2284 35.5115 67.7879 34.9462C67.3474 34.3538 67.0996 33.4923 67.0996 32.3346V25.6038H63.9058V32.6577C63.9058 33.7615 64.0435 34.7038 64.3188 35.4308C64.5942 36.1846 64.9796 36.7769 65.4477 37.2346C65.9157 37.6923 66.4663 38.0154 67.0996 38.2038C67.7053 38.3923 68.3661 38.5 69.0544 38.5C70.0455 38.5 70.8715 38.3115 71.5048 37.9885C72.0829 37.6654 72.551 37.2885 72.9364 36.8846L73.2118 38.3654H75.9925V25.6308H72.7988V31.9846H72.8538ZM53.8841 26.2769C52.8929 25.7385 51.6815 25.4692 50.36 25.4692C49.0384 25.4692 47.8545 25.7385 46.8358 26.2769C45.8171 26.8154 45.0187 27.5962 44.4681 28.5654C43.9174 29.5346 43.6421 30.6923 43.6421 31.9846C43.6421 33.2769 43.9174 34.4077 44.4681 35.3769C45.0187 36.3462 45.8171 37.1269 46.8358 37.6654C47.8545 38.2038 49.0384 38.4731 50.36 38.4731C51.709 38.4731 52.8929 38.2038 53.8841 37.6654C54.8753 37.1269 55.6737 36.3462 56.2243 35.3769C56.775 34.4077 57.0503 33.25 57.0503 31.9846C57.0503 30.6923 56.775 29.5346 56.2243 28.5654C55.7012 27.5962 54.9028 26.8423 53.8841 26.2769ZM52.2046 35.3769C51.6815 35.7 51.0758 35.8615 50.36 35.8615C49.6441 35.8615 49.0384 35.7 48.5153 35.3769C47.9922 35.0538 47.5792 34.5962 47.3039 34.0038C47.0286 33.4115 46.8634 32.7385 46.8634 31.9846C46.8634 31.2038 47.001 30.5308 47.3039 29.9654C47.5792 29.4 47.9922 28.9154 48.5153 28.5923C49.0384 28.2692 49.6441 28.0808 50.36 28.0808C51.0758 28.0808 51.709 28.2423 52.2046 28.5923C52.7277 28.9154 53.1132 29.4 53.416 29.9654C53.6914 30.5308 53.8566 31.2308 53.8566 31.9846C53.8566 32.7385 53.7189 33.4115 53.416 34.0038C53.1407 34.5962 52.7277 35.0538 52.2046 35.3769ZM6.80387 25.2808H3.5V38.3385H6.80387V25.2808ZM17.1835 26.0346C17.1835 23.2615 14.8708 21 12.035 21H3.5V23.8H11.622C12.916 23.8 13.9623 24.7962 13.9898 26.0077C13.9898 26.6269 13.7695 27.1923 13.329 27.6231C12.8885 28.0269 12.3103 28.2692 11.7046 28.2692H8.53841C8.42828 28.2692 8.34568 28.35 8.34568 28.4577V30.9615C8.34568 31.0154 8.34568 31.0423 8.37322 31.0692L13.742 38.3385H17.6791L12.2828 31.0423C14.981 30.9346 17.1835 28.7 17.1835 26.0346ZM27.343 26.2231C26.3793 25.7385 25.2505 25.4692 23.984 25.4692C22.7175 25.4692 21.5612 25.7385 20.5976 26.2769C19.6064 26.8154 18.863 27.5962 18.3124 28.5654C17.7617 29.5346 17.5139 30.6923 17.5139 32.0115C17.5139 33.3038 17.7893 34.4346 18.3399 35.4038C18.8906 36.3731 19.689 37.1538 20.6802 37.6654C21.6988 38.2038 22.9103 38.4731 24.2869 38.4731C25.3882 38.4731 26.3518 38.2846 27.2053 37.8808C28.0588 37.4769 28.7471 36.9385 29.2427 36.2654C29.7383 35.6192 30.0687 34.9192 30.2339 34.1385L30.2614 34.0577H27.0401L27.0126 34.1115C26.8474 34.7038 26.4895 35.1615 26.0214 35.4846C25.4983 35.8346 24.8375 36.0231 24.0942 36.0231C23.4609 36.0231 22.8827 35.8885 22.3872 35.6192C21.8916 35.35 21.5061 34.9731 21.2308 34.5154C20.9555 34.0308 20.8178 33.4654 20.7627 32.8192V32.7115H30.3165V32.6577C30.344 32.4692 30.3715 32.2808 30.3715 32.1192C30.3715 31.9308 30.3715 31.7692 30.3715 31.5808C30.344 30.3423 30.0687 29.2654 29.5455 28.35C29.05 27.4077 28.2791 26.7077 27.343 26.2231ZM26.1866 28.6192C26.7373 29.0769 27.0676 29.6962 27.2053 30.5038H20.9004C20.983 29.9923 21.1482 29.5346 21.4235 29.1577C21.7264 28.7538 22.0843 28.4577 22.5523 28.2423C22.9929 28.0269 23.4884 27.9192 24.0116 27.9192C24.8926 27.9192 25.6084 28.1615 26.1866 28.6192Z" fill="currentColor"></path></svg>