<svg xmlns="http://www.w3.org/2000/svg" width="100%" height="100%" viewBox="0 0 120 60" fill="none"><path d="M19.6608 33.7274C18.1213 34.754 15.1556 35.4615 11.721 35.5038C11.5419 35.5056 11.3957 35.3486 11.3957 35.1547V33.8799C11.3957 33.6889 11.253 33.5326 11.0765 33.5309H11.0686C11.0426 33.5309 11.0157 33.5309 10.9896 33.5299C10.8817 33.528 10.7747 33.5261 10.6678 33.5233H10.6486C10.5469 33.5205 10.4451 33.5167 10.3443 33.5129L10.2685 33.5102C10.1633 33.5054 10.0581 33.5007 9.95369 33.495C9.94411 33.495 9.93462 33.4941 9.92504 33.4931C9.82844 33.4878 9.73188 33.4818 9.63536 33.4753C9.61187 33.4734 9.58839 33.4724 9.56491 33.4706C9.46223 33.4633 9.3596 33.4555 9.257 33.4471L9.22131 33.4443C9.12832 33.4367 9.03617 33.4282 8.94393 33.4189C8.92223 33.417 8.90044 33.4151 8.87959 33.4122C8.77953 33.4021 8.67952 33.3915 8.57957 33.3803C8.56642 33.3784 8.55346 33.3775 8.5404 33.3756C8.44995 33.3652 8.36034 33.3539 8.27082 33.3427C8.25251 33.3398 8.23334 33.3379 8.21512 33.3361C8.11736 33.3232 8.01967 33.3097 7.92206 33.2956L7.88289 33.2899C7.79412 33.2768 7.70724 33.2636 7.61932 33.2495C7.60373 33.2466 7.58889 33.2448 7.57329 33.2419C7.47772 33.227 7.38231 33.211 7.28709 33.194C7.27487 33.1921 7.26276 33.1893 7.25055 33.1874C7.16272 33.1714 7.07659 33.1554 6.99055 33.1394C6.97927 33.1375 6.968 33.1347 6.95664 33.1329C6.86271 33.115 6.77047 33.0961 6.67832 33.0763C6.66705 33.0744 6.65653 33.0717 6.64526 33.0698C6.5591 33.0512 6.473 33.0324 6.38695 33.0133C6.38 33.0115 6.37304 33.0105 6.36694 33.0087C6.27564 32.988 6.18603 32.9663 6.09642 32.9447C6.08684 32.9428 6.07819 32.9399 6.06861 32.9381C5.98163 32.9164 5.8955 32.8948 5.81124 32.8722C5.80852 32.8722 5.80683 32.8712 5.8042 32.8703C5.71735 32.8468 5.63068 32.8227 5.5442 32.7979C5.53631 32.796 5.52851 32.7932 5.51978 32.7913C5.35327 32.7431 5.1877 32.6916 5.02316 32.637C5.01715 32.6351 5.01095 32.6332 5.00494 32.6304C4.8475 32.5777 4.69122 32.5216 4.53623 32.462C4.53197 32.4601 4.52757 32.4585 4.52308 32.4573C4.3758 32.4004 4.22994 32.3398 4.08564 32.2757C4.08216 32.2748 4.07953 32.2729 4.07606 32.2719C3.93973 32.2109 3.80516 32.146 3.67253 32.0772C3.67253 32.0772 3.66906 32.0753 3.66643 32.0744C3.54207 32.0099 3.41995 31.9412 3.30028 31.8683C3.18739 31.7999 3.07739 31.7268 2.97059 31.6491L2.9689 31.6481C2.8709 31.5767 2.7763 31.5008 2.68541 31.4204C2.48187 31.2548 2.33749 31.0469 2.23314 30.8475C2.17048 30.727 2.00178 30.7722 2.00178 30.9105V32.1251C2.00178 33.957 6.03386 35.4492 11.0713 35.5104C11.2488 35.5123 11.3922 35.6675 11.3922 35.8594V37.1362C11.3922 37.3282 11.2479 37.4824 11.0704 37.4805H11.067C11.0408 37.4805 11.0139 37.4805 10.9878 37.4796C10.8805 37.4779 10.7733 37.4758 10.6661 37.4731H10.6469C10.5451 37.4702 10.4433 37.4664 10.3426 37.4627L10.2669 37.4598C10.1617 37.4552 10.0564 37.4505 9.952 37.4448C9.94242 37.4448 9.93284 37.4439 9.92325 37.4429C9.82585 37.4372 9.72929 37.4317 9.63367 37.425C9.61018 37.4232 9.5867 37.4222 9.56322 37.4203C9.46054 37.4131 9.3579 37.4052 9.25531 37.3968L9.21962 37.394C9.12675 37.3865 9.03429 37.378 8.94224 37.3686C8.92045 37.3667 8.89875 37.3648 8.8779 37.362C8.7778 37.3519 8.67777 37.3413 8.57779 37.3301C8.56473 37.3282 8.55168 37.3272 8.53862 37.3253C8.4487 37.3149 8.35884 37.3039 8.26904 37.2924C8.25082 37.2896 8.23165 37.2877 8.21334 37.2858C8.11509 37.2726 8.01683 37.2595 7.92027 37.2454L7.8811 37.2397C7.7932 37.2267 7.70537 37.2133 7.61763 37.1993C7.60194 37.1964 7.58719 37.1945 7.5716 37.1917C7.47603 37.1768 7.38062 37.1608 7.28539 37.1438C7.27318 37.1419 7.26097 37.139 7.24876 37.1372C7.16103 37.1212 7.0749 37.1051 6.98876 37.0891C6.97749 37.0873 6.96622 37.0844 6.95495 37.0826C6.86102 37.0647 6.76877 37.0459 6.67653 37.0261C6.66526 37.0242 6.65484 37.0214 6.64347 37.0196C6.55655 37.0007 6.47045 36.9818 6.38516 36.9631C6.37821 36.9612 6.37126 36.9602 6.36525 36.9584C6.27385 36.9377 6.18424 36.9161 6.09473 36.8944C6.08515 36.8926 6.07641 36.8897 6.06683 36.8878C5.97994 36.8662 5.89381 36.8445 5.80946 36.822C5.80683 36.822 5.80504 36.821 5.80251 36.8201C5.71459 36.7965 5.62855 36.772 5.54241 36.7477C5.53462 36.7458 5.52673 36.7429 5.51799 36.741C5.35152 36.6928 5.18598 36.6413 5.02147 36.5867C5.01525 36.585 5.00916 36.5828 5.00325 36.5802C4.84578 36.5275 4.68947 36.4713 4.53444 36.4118C4.53003 36.4099 4.52571 36.408 4.52129 36.407C4.37402 36.3501 4.22816 36.2896 4.08386 36.2255C4.08038 36.2245 4.07784 36.2226 4.07437 36.2217C3.93798 36.1607 3.80338 36.0957 3.67075 36.0269C3.6688 36.0258 3.66676 36.0248 3.66464 36.0241C3.54025 35.9597 3.41813 35.891 3.2985 35.818L3.29502 35.8162C3.18342 35.7483 3.07462 35.6757 2.9689 35.5988L2.96721 35.5979C2.86918 35.5265 2.77455 35.4505 2.68363 35.3702C2.48008 35.2046 2.33571 34.9967 2.23135 34.7973C2.16879 34.6768 2 34.7219 2 34.8603V36.0749C2 37.9058 6.03039 39.398 11.0661 39.4601C11.2452 39.462 11.3931 39.3067 11.3931 39.113V37.8371C11.3931 37.6461 11.5348 37.49 11.7114 37.4881C17.0185 37.426 20.2626 35.8227 20.2626 34.6674C20.2626 34.3748 20.0547 34.0539 19.6582 33.7359L19.6608 33.7274ZM3.12736 26.2756C4.66764 25.2492 7.63425 24.5417 11.0706 24.4993C11.2489 24.4974 11.3941 24.6545 11.3941 24.8465V26.1251C11.3941 26.3161 11.5368 26.4723 11.7133 26.4742H11.7212C11.7472 26.4742 11.7742 26.4742 11.8003 26.4751C11.9081 26.477 12.0151 26.4789 12.1221 26.4818H12.1412C12.243 26.4845 12.3447 26.4883 12.4457 26.4921L12.5213 26.4949C12.6265 26.4996 12.7318 26.5043 12.8361 26.5099C12.8457 26.5099 12.8553 26.5109 12.8649 26.5118C12.9623 26.5175 13.0588 26.5232 13.1545 26.5297C13.178 26.5316 13.2014 26.5325 13.2249 26.5344C13.3284 26.542 13.431 26.5494 13.5328 26.5578L13.5684 26.5607C13.6615 26.5682 13.7537 26.5767 13.8459 26.5862C13.8676 26.588 13.8894 26.5899 13.9102 26.5927C14.0111 26.6031 14.1112 26.6134 14.2104 26.6247C14.2233 26.6266 14.2364 26.6275 14.2494 26.6294C14.3399 26.6398 14.4295 26.651 14.5191 26.6624C14.5373 26.6652 14.5565 26.6671 14.5747 26.669C14.6856 26.6836 14.7963 26.6989 14.9069 26.715C14.9957 26.7283 15.0827 26.7414 15.1705 26.7555C15.1861 26.7583 15.2009 26.7602 15.2166 26.763C15.3131 26.7781 15.408 26.794 15.5027 26.811C15.5149 26.8128 15.5271 26.8157 15.5393 26.8176C15.6271 26.8336 15.7132 26.8496 15.7993 26.8656C15.8107 26.8675 15.8219 26.8703 15.8332 26.8722C15.9271 26.8901 16.0194 26.9089 16.1115 26.9286C16.1229 26.9305 16.1333 26.9333 16.1446 26.9352C16.2316 26.954 16.3177 26.9728 16.4029 26.9917C16.4098 26.9936 16.4168 26.9945 16.4229 26.9964C16.5142 27.017 16.6038 27.0386 16.6934 27.0603C16.703 27.0622 16.7116 27.065 16.7212 27.0669C16.8082 27.0885 16.8943 27.1102 16.9787 27.1328C16.9813 27.1328 16.983 27.1337 16.9856 27.1347C17.0735 27.1582 17.1596 27.1826 17.2456 27.2071C17.2535 27.209 17.2613 27.2118 17.2701 27.2137C17.4404 27.2636 17.6066 27.3143 17.7667 27.368C17.7728 27.3699 17.7788 27.3718 17.7849 27.3746C17.9466 27.4292 18.1032 27.4847 18.2537 27.543C18.258 27.5449 18.2623 27.5467 18.2668 27.5477C18.4181 27.606 18.5641 27.6672 18.7042 27.7293C18.7077 27.7302 18.7103 27.7321 18.7138 27.733C18.8547 27.7961 18.9886 27.861 19.1173 27.9277C19.1173 27.9277 19.1208 27.9296 19.1234 27.9306C19.2479 27.9948 19.37 28.0635 19.4895 28.1366L19.493 28.1385C19.6047 28.2064 19.7136 28.2789 19.8192 28.3559L19.8209 28.3568C19.919 28.4282 20.0136 28.5042 20.1045 28.5845C20.3088 28.7511 20.4541 28.9599 20.5576 29.1603C20.6193 29.2798 20.788 29.2319 20.788 29.0954V27.8798C20.788 26.0479 16.7543 24.5557 11.7151 24.4946C11.5385 24.4927 11.3959 24.3384 11.3959 24.1474V22.8669C11.3959 22.674 11.5411 22.5188 11.7194 22.5216H11.7229C11.8566 22.5234 11.9902 22.5259 12.1239 22.5291H12.1429C12.2448 22.532 12.3465 22.5358 12.4474 22.5395L12.5231 22.5423C12.6283 22.547 12.7335 22.5517 12.8378 22.5574C12.8474 22.5574 12.857 22.5583 12.8666 22.5592C12.964 22.5649 13.0605 22.5705 13.1562 22.5772C13.1796 22.579 13.2031 22.5799 13.2266 22.5818C13.3412 22.5899 13.4557 22.5987 13.5702 22.6082C13.6633 22.6157 13.7554 22.6241 13.8476 22.6335C13.8694 22.6354 13.8911 22.6373 13.912 22.6401C14.0129 22.6505 14.1129 22.6609 14.212 22.6722C14.2251 22.674 14.2382 22.675 14.2512 22.6769C14.3417 22.6872 14.4312 22.6984 14.5208 22.7098C14.5391 22.7126 14.5582 22.7145 14.5765 22.7164C14.6747 22.7295 14.773 22.7427 14.8696 22.7567L14.9087 22.7624C14.9974 22.7756 15.0844 22.7888 15.1722 22.8029C15.1879 22.8057 15.2026 22.8076 15.2183 22.8104C15.3149 22.8255 15.4097 22.8414 15.5044 22.8584C15.5166 22.8603 15.5289 22.8632 15.541 22.8651C15.6288 22.8809 15.7149 22.897 15.8011 22.913C15.8123 22.9149 15.8236 22.9177 15.835 22.9196C15.9289 22.9375 16.0211 22.9563 16.1133 22.976C16.1246 22.9779 16.135 22.9807 16.1464 22.9826C16.2333 23.0014 16.3194 23.0202 16.4047 23.0391C16.4116 23.0409 16.4186 23.0419 16.4247 23.0438C16.516 23.0645 16.6056 23.0861 16.6951 23.1078C16.7047 23.1097 16.7134 23.1125 16.723 23.1144C16.81 23.1359 16.896 23.1576 16.9804 23.1802C16.983 23.1802 16.9848 23.1811 16.9873 23.1821C17.0752 23.2056 17.1613 23.2301 17.2474 23.2546C17.2552 23.2564 17.2631 23.2593 17.2717 23.2612C17.4422 23.311 17.6083 23.3617 17.7684 23.4154C17.7745 23.4173 17.7806 23.4192 17.7867 23.422C17.9441 23.4747 18.1004 23.5308 18.2554 23.5904C18.2598 23.5923 18.2641 23.5941 18.2684 23.5951C18.4198 23.6534 18.5659 23.7146 18.706 23.7766C18.7095 23.7776 18.712 23.7795 18.7156 23.7804C18.8565 23.8435 18.9903 23.9084 19.1191 23.9751C19.1191 23.9751 19.1226 23.977 19.1252 23.978C19.2497 24.0422 19.3718 24.1109 19.4913 24.184L19.4948 24.1859C19.6065 24.2538 19.7153 24.3263 19.8209 24.4033L19.8227 24.4042C19.9207 24.4756 20.0153 24.5516 20.1062 24.632C20.3106 24.7984 20.4558 25.0073 20.5593 25.2078C20.6211 25.3273 20.7898 25.2792 20.7898 25.1419V23.9263C20.7898 22.0953 16.7594 20.6031 11.7237 20.541C11.5446 20.5391 11.3967 20.6944 11.3967 20.8882V22.1678C11.3967 22.3578 11.2559 22.5131 11.0802 22.515C5.76869 22.5856 2.52291 24.1888 2.52291 25.3442C2.52291 25.6368 2.73078 25.9576 3.12736 26.2756Z" fill="currentColor"></path><path d="M11.5253 28.7274H11.3688C11.2679 28.7274 11.167 28.7274 11.067 28.7255C11.0408 28.7255 11.0139 28.7255 10.9878 28.7246C10.8799 28.7227 10.773 28.7208 10.6661 28.718H10.6469C10.5451 28.7151 10.4433 28.7114 10.3426 28.7076L10.2669 28.7049C10.1617 28.7002 10.0564 28.6955 9.952 28.6898C9.94242 28.6898 9.93283 28.6889 9.9241 28.6879C9.82672 28.6824 9.73019 28.6765 9.63451 28.6701C9.61103 28.6683 9.58754 28.6673 9.56406 28.6654C9.46055 28.6579 9.35798 28.6503 9.25616 28.6419L9.22046 28.6391C9.1276 28.6315 9.03514 28.623 8.94309 28.6136C8.92129 28.6117 8.8996 28.6098 8.87874 28.607C8.77786 28.5967 8.67773 28.5864 8.57863 28.5751C8.56558 28.5732 8.55252 28.5722 8.53956 28.5703C8.4491 28.5599 8.35949 28.5487 8.26998 28.5374C8.25166 28.5346 8.2325 28.5327 8.21428 28.5308C8.11593 28.5177 8.01768 28.5046 7.92121 28.4904L7.8811 28.4847C7.79243 28.4716 7.70545 28.4584 7.61763 28.4444C7.60194 28.4415 7.58719 28.4396 7.5716 28.4368C7.47495 28.4217 7.38017 28.4057 7.28539 28.3888C7.27318 28.3869 7.26097 28.3841 7.24876 28.3822C7.16103 28.3662 7.0749 28.3502 6.98876 28.3342C6.97749 28.3324 6.96622 28.3295 6.95495 28.3276C6.86101 28.3098 6.76877 28.291 6.67653 28.2712C6.66526 28.2693 6.65484 28.2665 6.64347 28.2646C6.55655 28.2457 6.47045 28.2269 6.38516 28.2082C6.37821 28.2063 6.37126 28.2053 6.36525 28.2034C6.27385 28.1827 6.18424 28.1611 6.09473 28.1394C6.08515 28.1376 6.07641 28.1347 6.06683 28.1328C5.97994 28.1113 5.89465 28.0896 5.80946 28.067C5.80683 28.067 5.80504 28.0661 5.80251 28.0652C5.71453 28.0414 5.62783 28.0172 5.54241 27.9927C5.53462 27.9908 5.52673 27.9879 5.51799 27.986C5.35152 27.9378 5.18598 27.8864 5.02147 27.8318C5.01537 27.8299 5.00926 27.828 5.00325 27.8252C4.84577 27.7725 4.68946 27.7164 4.53444 27.6568C4.53003 27.6549 4.52571 27.653 4.52129 27.652C4.37402 27.5952 4.22816 27.5347 4.08386 27.4706C4.08038 27.4696 4.07784 27.4677 4.07437 27.4668C3.93798 27.4058 3.80338 27.3408 3.67075 27.272C3.67075 27.272 3.66715 27.2701 3.66464 27.2692C3.54018 27.2049 3.41805 27.1362 3.2985 27.0631L3.29502 27.0612C3.18336 26.9933 3.07456 26.9208 2.9689 26.8438L2.96721 26.8429C2.86918 26.7716 2.77455 26.6956 2.68363 26.6153C2.47924 26.4488 2.33402 26.2389 2.23051 26.0394C2.16879 25.92 2 25.968 2 26.1044V27.8845C2 29.755 6.20519 31.2716 11.3931 31.2716C11.5027 31.2725 11.6114 31.2725 11.7202 31.2744C11.7463 31.2744 11.7732 31.2744 11.7992 31.2754C11.9071 31.2772 12.0141 31.2791 12.121 31.282H12.1402C12.2419 31.2848 12.3438 31.2886 12.4446 31.2923L12.5203 31.2951C12.6256 31.2998 12.7308 31.3046 12.8351 31.3102C12.8447 31.3102 12.8543 31.3112 12.8639 31.312C12.9613 31.3177 13.0577 31.3234 13.1534 31.33C13.1769 31.3318 13.2004 31.3327 13.2239 31.3346C13.3274 31.3422 13.43 31.3497 13.5318 31.3581L13.5674 31.361C13.6603 31.3685 13.7528 31.377 13.8449 31.3864C13.8667 31.3883 13.8875 31.3902 13.9092 31.393C14.0101 31.4033 14.1101 31.4137 14.2093 31.425C14.2224 31.4269 14.2354 31.4278 14.2484 31.4297C14.3388 31.44 14.4285 31.4513 14.5181 31.4626C14.5363 31.4654 14.5555 31.4673 14.5737 31.4692C14.672 31.4823 14.7703 31.4956 14.8668 31.5097L14.9059 31.5153C14.9947 31.5285 15.0825 31.5416 15.1695 31.5558C15.1852 31.5586 15.1999 31.5604 15.2156 31.5632C15.3121 31.5784 15.4069 31.5943 15.5017 31.6113C15.5139 31.6131 15.526 31.616 15.5383 31.6179C15.6261 31.6338 15.7122 31.6498 15.7983 31.6658C15.8096 31.6677 15.8209 31.6705 15.8322 31.6724C15.9261 31.6903 16.0183 31.7091 16.1105 31.7288C16.1218 31.7307 16.1323 31.7336 16.1435 31.7354C16.2306 31.7543 16.3167 31.7731 16.4019 31.7919C16.4088 31.7938 16.4158 31.7947 16.4219 31.7966C16.5122 31.8173 16.6024 31.8386 16.6924 31.8606C16.702 31.8625 16.7106 31.8653 16.7202 31.8672C16.8072 31.8888 16.8933 31.9105 16.9776 31.9331C16.9803 31.9331 16.982 31.934 16.9846 31.9349C17.0724 31.9584 17.1586 31.9829 17.2447 32.0074C17.2525 32.0093 17.2611 32.0121 17.269 32.014C17.4395 32.0638 17.6056 32.1146 17.7656 32.1682C17.7717 32.1701 17.7777 32.172 17.7839 32.1748C17.9456 32.2294 18.1022 32.285 18.2527 32.3433C18.257 32.3452 18.2614 32.3471 18.2657 32.348C18.417 32.4063 18.5632 32.4675 18.7032 32.5296C18.7066 32.5305 18.7093 32.5324 18.7127 32.5333C18.8536 32.5964 18.9876 32.6613 19.1163 32.728C19.1163 32.728 19.1197 32.7299 19.1224 32.7309C19.2467 32.7953 19.3688 32.864 19.4885 32.9369C19.6014 33.0053 19.7114 33.0785 19.8182 33.1562L19.8199 33.1571C19.9179 33.2285 20.0126 33.3045 20.1035 33.3848C20.3079 33.5514 20.4531 33.7602 20.5566 33.9606C20.6183 34.0801 20.787 34.0321 20.787 33.8957V32.1156C20.787 30.2611 16.6524 28.7548 11.5244 28.7294L11.5253 28.7274Z" fill="currentColor"></path><path d="M118.5 23.6982V25.6016H112.843V29.0202H117.03V30.9051H112.843V34.3977H118.5V36.3011H110.804V23.6982H118.5ZM108.29 36.3011H100.172V34.6195L105.81 25.7864V25.6015H100.484V23.6982H108.198V25.4353L102.578 34.2129V34.3977H108.29V36.3011ZM97.6351 36.3011H95.5963V23.6982H97.6351V36.3011ZM82.7488 36.3011H80.7102V23.6982H82.7488V36.3011ZM78.3232 36.3011H76.0643L73.3095 31.6813H72.0055V36.3011H69.9671V23.6982H74.191C76.8907 23.6982 78.2864 25.0102 78.2864 27.6527V27.7267C78.2864 29.8888 77.3498 31.1454 75.55 31.5519V31.7182L78.3232 36.3011ZM76.2847 27.7267V27.6528C76.2847 26.1375 75.8439 25.6016 74.191 25.6016H72.0055V29.7964H74.191C75.8439 29.7964 76.2847 29.2235 76.2847 27.7267ZM62.8335 36.4858H62.7233C60.2257 36.4858 58.6095 35.0075 58.6095 32.1987V23.6982H60.648V32.1987C60.648 34.0282 61.199 34.638 62.7233 34.638H62.8335C64.3578 34.638 64.9088 34.0282 64.9088 32.1987V23.6982H66.9473V32.1987C66.9473 35.0075 65.3311 36.4858 62.8335 36.4858ZM51.8195 36.486H51.7094C49.2116 36.486 47.4486 34.9522 47.4486 31.8662V28.1334C47.4486 25.0474 49.2116 23.5136 51.7094 23.5136H51.8195C54.3172 23.5136 56.0802 25.0474 56.0802 28.1335H54.0417C54.0417 26.0267 53.3438 25.3616 51.8195 25.3616H51.7094C50.185 25.3616 49.4871 26.0267 49.4871 28.1334V31.8662C49.4871 33.9729 50.185 34.6382 51.7094 34.6382H51.8195C53.3438 34.6382 54.0417 33.9729 54.0417 31.8662H56.0802C56.0802 34.9522 54.3172 36.486 51.8195 36.486ZM45.5595 23.6982V25.6016H39.9031V29.0202H44.0903V30.9051H39.9031V34.3977H45.5595V36.3011H37.8645V23.6982H45.5595ZM31.2425 36.486H31.1323C28.5612 36.486 26.7981 35.2295 26.7981 32.4207H28.8183C28.8183 34.1577 29.5345 34.6382 31.1323 34.6382H31.2425C32.7668 34.6382 33.4647 34.1762 33.4647 32.9195C33.4647 31.4412 31.72 31.1086 30.3793 30.6466C28.2123 29.9075 27.0002 28.9281 27.0185 26.9138C27.0552 24.6778 28.7264 23.5136 30.8935 23.5136H31.0038C33.483 23.5136 35.191 24.7702 35.191 27.5976H33.1709C33.1709 25.842 32.5097 25.3616 31.0038 25.3616H30.8935C29.6998 25.3616 29.0754 25.842 29.0754 26.9138C29.0754 28.1889 30.1773 28.5769 31.4261 28.965C33.7218 29.6857 35.4849 30.5727 35.4849 32.9195C35.4849 35.3219 33.7585 36.486 31.2425 36.486ZM84.7727 23.6982H93.5879V25.6015H90.1904V36.3009H88.1702V26.6942L88.9773 25.8989C89.0876 25.7902 89.0112 25.6015 88.8567 25.6015H84.7727V23.6982Z" fill="currentColor"></path></svg>