<svg xmlns="http://www.w3.org/2000/svg" width="100%" viewBox="0 0 72 60" fill="white" class="hero-marquee-img is-small"><path fill-rule="evenodd" clip-rule="evenodd" d="M69 30.4339C69 25.9907 66.7267 22.4846 62.3817 22.4846C58.0183 22.4846 55.3783 25.9907 55.3783 30.3992C55.3783 35.6235 58.495 38.2617 62.9683 38.2617C65.15 38.2617 66.8 37.7931 68.0467 37.1335V33.6622C66.8 34.2523 65.37 34.6168 63.555 34.6168C61.7767 34.6168 60.2 34.0267 59.9983 31.9786H68.9633C68.9633 31.753 69 30.8505 69 30.4339ZM59.9433 28.785C59.9433 26.8238 61.2083 26.008 62.3633 26.008C63.4817 26.008 64.6733 26.8238 64.6733 28.785H59.9433ZM48.3017 22.4846C46.505 22.4846 45.35 23.283 44.7083 23.8385L44.47 22.7623H40.4367V43L45.02 42.0801L45.0383 37.1682C45.6983 37.6195 46.67 38.2617 48.2833 38.2617C51.565 38.2617 54.5533 35.7623 54.5533 30.2603C54.535 25.227 51.51 22.4846 48.3017 22.4846ZM47.2017 34.4433C46.12 34.4433 45.4783 34.0788 45.0383 33.6275L45.02 27.1883C45.4967 26.6849 46.1567 26.3378 47.2017 26.3378C48.87 26.3378 50.025 28.1081 50.025 30.3818C50.025 32.7076 48.8883 34.4433 47.2017 34.4433ZM34.13 21.4606L38.7317 20.5234V17L34.13 17.9199V21.4606ZM34.13 22.7797H38.7317V37.9666H34.13V22.7797ZM29.1983 24.0641L28.905 22.7797H24.945V37.9666H29.5283V27.6742C30.61 26.3378 32.4433 26.5808 33.0117 26.7717V22.7797C32.425 22.5714 30.28 22.1896 29.1983 24.0641ZM20.0317 19.0134L15.5583 19.9159L15.54 33.8184C15.54 36.3872 17.575 38.279 20.2883 38.279C21.7917 38.279 22.8917 38.0187 23.4967 37.7063V34.1829C22.91 34.4085 20.0133 35.2069 20.0133 32.6382V26.4766H23.4967V22.7797H20.0133L20.0317 19.0134ZM7.63833 27.1883C7.63833 26.5113 8.225 26.251 9.19667 26.251C10.59 26.251 12.35 26.6502 13.7433 27.3618V23.283C12.2217 22.7103 10.7183 22.4846 9.19667 22.4846C5.475 22.4846 3 24.3244 3 27.3965C3 32.1869 9.96667 31.4232 9.96667 33.4887C9.96667 34.287 9.23333 34.5474 8.20667 34.5474C6.685 34.5474 4.74167 33.9573 3.20167 33.1589V37.2897C4.90667 37.984 6.63 38.279 8.20667 38.279C12.02 38.279 14.6417 36.4913 14.6417 33.3845C14.6233 28.2123 7.63833 29.1322 7.63833 27.1883Z" fill="white"></path></svg>